<svg id="Capa_1" data-name="Capa 1" xmlns="http://www.w3.org/2000/svg" viewBox="0 0 1080 1080"><defs><style>.cls-1{fill:#7a5e54;}</style></defs><title>WEB_SANTAELENA</title><path class="cls-1" d="M674.38,1000.49c-23.43-.11-38.25-11.66-44-34.32l-.55-2.23a7.06,7.06,0,0,0-6.89-5.4l-176.43,0q-79.37,0-158.71.07c-19.46,0-33-7.13-41.52-21.83A42.23,42.23,0,0,1,279,873.87c3-.26,6.09-.3,9.14-.3l198.84,0c18.93,0,26.37-7.42,26.54-26.47,0-3,0-10.39,0-10.39a7.11,7.11,0,0,0-7.08-7.09H149.2c-12.5,0-22.18-4.28-27.24-12s-5.12-18.28-.15-29.71L127.42,775q54.15-124.58,108-249.25c6.52-15.15,16.33-21.6,32.79-21.6q129.9.21,259.6.17l237.24,0c13.13,0,22,5.81,27.24,17.77l28.33,65.22q43.88,100.95,87.63,202c4.63,10.7,4.44,20.77-.52,28.36s-14.39,12-26.3,12h-5.6c-9.8,0-19-.08-28.26-.15s-18.45-.16-28.22-.16c-14.54,0-27.77.18-41.64.56L540,829.6a7.07,7.07,0,0,0-7.08,7.12v3.19c0,3.73,0,7.25,0,10.77-.41,25.12-17.53,42-42.61,42H286.72c-14.07,0-23.85,6.92-26.16,18.46a23.15,23.15,0,0,0,3.8,18.16,23.48,23.48,0,0,0,16.22,9.59,33.27,33.27,0,0,0,4.24.23l338,0a7.13,7.13,0,0,0,6.83-5.18c7.62-27.08,20.92-37.16,49.07-37.17h34c11.42,0,13.29,1.43,15.48,11.64a7.11,7.11,0,0,0,6.91,5.61l39.31-.06c3.6,0,7.2,0,10.8.06,7.42.11,11.89,3.74,11.93,9.73s-4.49,9.61-11.84,9.68q-9,.08-18,.07l-31.79,0a7.1,7.1,0,0,0-7.09,7.08v16.58a7.1,7.1,0,0,0,7.1,7.09h39.12l7.51-.06c1.64,0,3.29,0,4.94.12,6.18.34,10.23,4.29,10.09,9.85-.13,5.19-4.33,9-10,9.12-7.2.11-14.41.13-21.61.13H739.72c-1.59,0-3.16.11-4.7.21a7.16,7.16,0,0,0-6.63,5.5c-2.39,10.26-4,11.43-16,11.45H697Q685.68,1000.54,674.38,1000.49Zm9.77-84.33c-4.12,0-8.16,0-12.21.13-13.19.33-22.19,9.06-22.93,22.23a182.38,182.38,0,0,0,0,21c.74,12.09,9.15,20.73,20.92,21.52,4.67.32,9.35.43,14,.43,5.21,0,10.42-.14,15.61-.3,3.59-.11,8.47-4,8.54-7.8.24-13.82.23-27.64.21-41.93v-8.15a7.11,7.11,0,0,0-7.09-7.09Zm-391-199.25q-55.85,0-111.67.2c-4.4,0-9.3,4.1-10.94,7.76-9,19.9-17.63,40-26.28,60l-3.83,8.87c-2.33,5.4-4.17,9.67-1.87,13.17s7.09,3.53,13.14,3.54l210.5,0c2,0,4-.13,6.15-.26a7.21,7.21,0,0,0,6.92-6.09L386.64,725a7.07,7.07,0,0,0-4.4-7.6,8.47,8.47,0,0,0-2.17-.45Zm362.2-.06c-1.66,0-3.32.09-5.22.21a7.38,7.38,0,0,0-5.55,2.59,7.16,7.16,0,0,0-1.54,5.52l11.47,79a7.1,7.1,0,0,0,6.26,6c1.14.11,1.85.18,2.56.18l139.38,0,82.9,0a7.1,7.1,0,0,0,6.52-9.88q-5.9-13.69-11.86-27.33c-6.77-15.52-13.54-31-20.05-46.67-2.9-7-7.19-9.81-14.81-9.81q-56.64.18-113,.13H655.31Zm-238-.09c-7.07,0-10.7,3.32-11.45,10.44-.59,5.74-1.5,11.45-2.4,17.15-.5,3.1-1,6.21-1.44,9.31-1.72,12.06-6.78,48.06-6.78,48.06a7.09,7.09,0,0,0,7,8.09H627.47a7.09,7.09,0,0,0,7-8.09l-1.71-11.94c-3.14-22-6.24-43.68-9.66-65.26-.73-4.63-7.49-7.5-10.92-7.5q-55.47-.18-110.94-.17ZM327.21,697.7c17.4,0,34.79,0,52.19.18h0c8.41,0,12.47-3.73,13-11.7.29-4.22,1-8.39,1.71-12.8.35-2.16.71-4.32,1-6.49l5.27-37.19a7.15,7.15,0,0,0-1.49-5.43,7.06,7.06,0,0,0-5-2.63c-1.86-.17-3.46-.28-5.06-.28h0c-14.8,0-28.91.07-43,.14s-28.23.14-42.35.14c-25,0-45.42-.23-64.15-.73l-2.31,0c-17.78,0-26.73,6.38-31.91,22.75-3.45,10.92-8.27,21.47-13.38,32.64-1.73,3.78-3.48,7.61-5.21,11.53a7.09,7.09,0,0,0,6.49,9.94Zm309-76.31a7.11,7.11,0,0,0-7,8.13l2.12,14.18c2.17,14.34,4.21,27.87,5.74,41.58,1,8.92,5.13,12.56,14.29,12.56,33.76-.13,67.32-.15,100.87-.15h79.87c1.58,0,3.15-.1,4.87-.23a7,7,0,0,0,5.16-2.89,7.36,7.36,0,0,0,1.12-6.12c-.14-.54-.44-1.3-3.15-8.12-4.11-10.31-11.76-29.5-17.36-45.13-4.14-11.57-7.37-14.07-18.17-14.07h-2.37c-32,.23-63.74.28-95.49.28Zm-208.85,0a7.13,7.13,0,0,0-7,6.1l-8.9,61.65a7.1,7.1,0,0,0,7,8.11H611.16a7.08,7.08,0,0,0,7-8.12l-2-13.36c-2.07-13.73-4-26.7-5.44-40-.82-7.64-3.23-14.69-15.18-14.69l-1.7,0c-7.27.32-14.55.41-21.84.41-5,0-10.06,0-15.1-.09s-10.11-.09-15.17-.09l-39.22,0c-11,0-51,0-51,0ZM622.2,523.44a7.11,7.11,0,0,0-7.07,7.64,56.74,56.74,0,0,0,1.81,12.21,155.77,155.77,0,0,1,6.14,42.4c0,10.1,2.24,16.36,13.37,16.36,29.06-.12,58-.14,86.87-.14h71.62a7.09,7.09,0,0,0,6.64-9.55c-.9-2.44-1.61-4.32-2.53-6.29-6.3-13.37-12.08-27.29-17.67-40.76l-4.9-11.77c-3-7.18-7.82-10.24-16.07-10.24-22.07.13-43.94.16-65.82.16Zm-289,.1q-33.78,0-67.57.19c-4.43,0-9.55,4.44-11.37,8.36-6.24,13.43-12.19,27.24-17.94,40.59l-3.75,8.7c-1.42,3.28-2.72,6.6-4.09,10.13a7.17,7.17,0,0,0,.66,6.78,7.09,7.09,0,0,0,5.85,3.09H398.44a7.12,7.12,0,0,0,7-6.09l9.12-63.65a7,7,0,0,0-5-7.81,7.54,7.54,0,0,0-1.48-.21S351.08,523.54,333.21,523.54Zm108.31-.07a7.13,7.13,0,0,0-7,6.09l-9.2,63.63a7.08,7.08,0,0,0,7,8.1h165a7.08,7.08,0,0,0,7-8.13L602.23,579c-2.28-15.16-4.44-29.48-6.23-44.11-1.24-10.15-7.16-11.55-13.37-11.55-25.37.13-50.45.17-75.54.17Z"/><path class="cls-1" d="M499.59,366c-55.45-.26-100.51-46.1-100.46-102.19.06-55.9,45.9-101.39,102.21-101.39a101.88,101.88,0,0,1,101.4,102.42C602.49,320.63,556.44,366,500.08,366Zm6.59-185.11c-59.92.92-87.47,43.58-87.71,82.84-.28,45.38,36.29,82.54,81.53,82.84,47.47,0,83-37.92,83.3-88.19-.11-17.3-9-36.8-23.84-52.2-15.69-16.31-34.32-25.3-52.44-25.3Z"/><path class="cls-1" d="M500.81,448.84c-5.66,0-9.41-4.12-9.55-10.37-.27-11-.26-22.13,0-33,.15-6.19,3.85-10,9.66-10s9.31,3.89,9.57,10.34c.15,3.75.11,7.51.07,11.27l0,5.16a3.93,3.93,0,0,0,.1.92l0,4.26c.05,3.74.11,7.48-.09,11.2-.33,6.23-4.13,10.25-9.67,10.25Z"/><path class="cls-1" d="M500.51,133.09c-5,0-8.95-4.34-9.23-10-.2-3.92-.15-7.84-.1-11.77l0-5.4c0-.17-.06-5.18-.06-5.18-.05-3.74-.1-7.48.09-11.21.28-5.8,4.09-9.93,9.25-10h0c5.76,0,9.5,3.6,9.76,9.18.55,11.84.57,23.66,0,35.13a9.29,9.29,0,0,1-9.71,9.32Z"/><path class="cls-1" d="M401.46,173.16c-2.77,0-4.8-.64-5.58-1.29-9-7.41-17.14-15.81-26.58-26.14-3.45-3.78-2-9.06,1.19-12.11a10,10,0,0,1,6.9-2.92,7.71,7.71,0,0,1,5.34,2.07c7.74,7.15,15.78,15.18,26.07,26a15.37,15.37,0,0,1,2.2,4.4c.26.65.53,1.35.83,2.08-.41.61-.83,1.24-1.24,1.88-1.43,2.21-3,4.72-4.44,5.26A13.73,13.73,0,0,1,401.46,173.16Z"/><path class="cls-1" d="M623,397.36a25.61,25.61,0,0,1-5.93-3.47c-7.8-7.17-15.27-14.83-22.26-22.05-2.73-2.82-4.14-5.84-4.08-8.72a9.88,9.88,0,0,1,9.19-9.07c2.74,0,5.66,1.42,8.45,4.09,7.74,7.44,15.31,15.08,22.83,22.77,1.93,2,4.8,5.93,2.22,10.06-1.35,2.15-3.76,4.07-6.31,6.09l-1.8,1.43Z"/><path class="cls-1" d="M597.54,173.69c-2-1.39-4.57-3.12-5.07-4.53-1.11-3.11-.67-8.53.84-10.35,7.69-9.27,16.55-17.53,25.72-25.87a8.21,8.21,0,0,1,5.58-2.19,9.5,9.5,0,0,1,6.63,2.82c3.14,3.11,4.65,8.42,1.24,12.11-8.76,9.51-18.24,18.64-27.19,27.09a13,13,0,0,1-3.77,1.47l-2.21.68C598.74,174.51,598.15,174.11,597.54,173.69Z"/><path class="cls-1" d="M342.87,273.86c-5.59,0-11.19-.09-16.77-.25a10.35,10.35,0,0,1-7.36-2.87,9.21,9.21,0,0,1-2.4-6.9c.17-5.46,3.94-9,9.85-9.25,2.05-.09,4.1-.11,6.16-.11l9.9.06,10.73-.06c2,0,4.07,0,6.1.08,6.26.2,10.56,3.94,10.71,9.3.16,5.64-3.84,9.56-10,9.74C354.19,273.77,348.52,273.86,342.87,273.86Z"/><path class="cls-1" d="M658.15,273.83q-8.32,0-16.66-.25c-5.71-.17-9.5-3.95-9.43-9.4s3.73-9.25,9.55-9.56c2.13-.1,4.27-.14,6.41-.14l10.76.09,10.7-.09c2.16,0,4.32,0,6.47.14,5.7.31,9.52,4.14,9.52,9.56,0,5.62-3.62,9.22-9.44,9.39S664.11,273.83,658.15,273.83Z"/><path class="cls-1" d="M375.91,396.27A12.37,12.37,0,0,1,373,396c-.65-.39-2.12-3-3.1-4.78-.52-.95-1.07-1.93-1.65-2.88.63-1.17,1.21-2.29,1.77-3.38a42.65,42.65,0,0,1,5.12-8.4c5.16-5.94,11.07-11.53,16.78-16.93l1.89-1.8a12,12,0,0,1,8.08-3.59,8.73,8.73,0,0,1,6.43,2.83c4,4.21,3.74,9.33-.77,14.06l-3.84,4.06c-6.13,6.51-12.48,13.23-19.4,18.76C382.49,395.31,379.13,396.27,375.91,396.27Z"/></svg>