<svg id="Capa_1" data-name="Capa 1" xmlns="http://www.w3.org/2000/svg" viewBox="0 0 2500 1080"><defs><style>.cls-1{font-size:222.52px;font-family:RNSPhysis-Thin, RNS Physis;font-weight:200;}.cls-1,.cls-2,.cls-3,.cls-4{fill:#e7e7e8;}.cls-3{font-size:104.26px;font-family:RNSPhysis-Light, RNS Physis;font-weight:300;letter-spacing:0.2em;}.cls-4{font-size:102.94px;font-family:RNSPhysis-Bold, RNS Physis;font-weight:700;}.cls-5{letter-spacing:-0.04em;}.cls-6{letter-spacing:0em;}</style></defs><title>WEB_SANTAELENA</title><text class="cls-1" transform="translate(1032.1 637.33)">&amp;</text><path class="cls-2" d="M568.9,323.19,492.38,188a10.23,10.23,0,0,0-18.3-.19L377.42,358.13a10.21,10.21,0,0,0,.28,9.84l86.07,149.25c2.68,3.72,2.17,11.65-3.86,14.89-9.69,5.21-15.06-3.63-15.06-3.63L355.63,371.91c-4.64-9.4-8.56-8.73-12.81-8.82l-143.3-.16c-11-.33-14.32,10.95-9.85,17.81L306,558.13c4.73,8.44,10.34,7,18.11,7.53l107.4-.86c11.36.53,30.85,11,32.86,34.8,2.87,33.95,22.43,54.19,36.6,57.27a4.29,4.29,0,0,0,4.86-2.7l11.55-29.9c.74-1.92-.42-3.64-2-4.94-9.64-7.88-13.66-11.24-13.41-26.62-.25-8.65,7.29-27.76,28.71-27.6,27.27.2,111.36.49,111.36.49,7.78-.49,13.38.91,18.12-7.53L776.39,380.68c4.47-6.86,1.12-18.14-9.84-17.8l-143.3.15c-4.25.09-8.17-.58-12.81,8.82L521.22,528.42s-5.37,8.84-15.06,3.63c-6-3.24-6.54-11.16-3.87-14.89l86.08-149.25a10.21,10.21,0,0,0,.28-9.84L568.9,323.19"/><text class="cls-3" transform="translate(330.4 784.5) scale(0.7)">GRUPO</text><text class="cls-4" transform="translate(139.14 886.4)">SAN<tspan class="cls-5" x="212.56" y="0">T</tspan><tspan class="cls-6" x="265.06" y="0">A ELENA</tspan></text><path class="cls-2" d="M2037.48,571.39l62.08,74.24a8.47,8.47,0,0,0,5.7,2.19v2.95h-40.45v-2.95a5.88,5.88,0,0,0,4-10.25l-45.59-57.48c-3-2.9-4.1-3.64-6.59-4.78-8.91-4.06-19.32,2.87-19.32,12.66v44.36a15.47,15.47,0,0,0,15.47,15.47h3.09v3h-53.77v-3a18.48,18.48,0,0,0,18.48-18.48V510.83a18.47,18.47,0,0,0-18.46-18.46v-2.94h82.4c20.8.79,38.83,16.49,40.39,37.29.56,7.6-.51,16.64-4.46,23.37-8.56,14.51-21.06,20.89-37.85,21.34Zm-40.18-2.71,28.57,0c19.62,0,35-8.67,39.38-19.31,3.46-8.33,3-11.76,3-19.53a35.86,35.86,0,0,0-.25-4.19c-2-19.3-19.44-33.25-38.78-33.25H1997.3v76.31Z"/><path class="cls-2" d="M1653.52,634,1599.4,488h-35.48v2.95a13.25,13.25,0,0,1,13.26,13.22,13.75,13.75,0,0,1-.82,4.57l-45.69,124.44a20.13,20.13,0,0,1-18.9,13.2v2.94h39.55v-2.94a12.8,12.8,0,0,1-7.43-2.38,10.06,10.06,0,0,1-1.25-15.29L1596.3,575a9.16,9.16,0,0,1,15.06,3.28L1629,625.57a15.42,15.42,0,0,1-14.45,20.8v2.94h56.82v-2.94A19.05,19.05,0,0,1,1653.52,634Zm-54.42-65.88-52,52a4.17,4.17,0,0,1-6.87-4.39l42.23-115.1,19.79,53.12A13.55,13.55,0,0,1,1599.1,568.08Z"/><path class="cls-2" d="M1910.11,568.75s-.51,0-.51-.69a.68.68,0,0,1,.51-.69,40.23,40.23,0,0,0,30.61-42.11c-1.53-20.8-19.57-36.52-40.29-37.28H1818v2.94a18.51,18.51,0,0,1,18.5,18.51V627.85a18.5,18.5,0,0,1-18.5,18.5v2.95h91A40.32,40.32,0,0,0,1949.3,609v0A40.27,40.27,0,0,0,1910.11,568.75Zm-56.89-77.83h32.88c19.16,0,35.81,14.16,37.8,33.21a41.39,41.39,0,0,1,.21,4.19,39.61,39.61,0,0,1-6.42,21.72c-7,10.89-19.44,17.14-32.41,17.14h-18.5a13.57,13.57,0,0,1-13.56-13.57ZM1932.57,609a41.53,41.53,0,0,1-.22,4.19c-2,19-18.61,33.17-37.75,33.17h-41.38V583.63a13.53,13.53,0,0,1,13.53-13.53h27c13,0,25.37,6.25,32.43,17.15a39.76,39.76,0,0,1,6.41,21.71Z"/><path class="cls-2" d="M2223.89,496.13a65.58,65.58,0,0,0-11.64-5.9,78,78,0,0,0-56.05-.15,63.67,63.67,0,0,0-12.14,6.05c-11.52,7.61-23.26,16.51-31.32,28.77s-12.62,28.68-12.69,43.75,4.65,31.59,12.69,43.75,19.8,21.18,31.32,28.78a64.87,64.87,0,0,0,12.14,6.05,77.89,77.89,0,0,0,56.05-.15,66.26,66.26,0,0,0,11.64-5.9c11.52-7.6,23.26-16.5,31.31-28.78s12.63-28.68,12.7-43.75-4.66-31.57-12.7-43.75S2235.41,503.74,2223.89,496.13Zm17.83,109.08c-4.49,11.85-10.89,23.14-21.38,31.16-.41.31-.83.61-1.26.91a61.16,61.16,0,0,1-70.21,0l-1.27-.91c-10.48-8-16.88-19.31-21.37-31.16a110.5,110.5,0,0,1,0-73.1c4.49-11.87,10.89-23.16,21.37-31.18l1.27-.91a61.16,61.16,0,0,1,70.21,0c.43.3.85.6,1.26.91,10.49,8,16.89,19.31,21.38,31.18a110.5,110.5,0,0,1,0,73.1Z"/><path class="cls-2" d="M2302.05,520.84c0-18.29,15.71-33.39,36.89-33.39,24.76,0,41.65,21.71,55.93,53.66l2.89-.55-.12-.61.93-.18V491.85h-3a6.09,6.09,0,0,1-8.83,5.43h0c-12.42-6-29.23-12.36-43.74-12.36-32.36,0-55.67,18.29-55.67,43,0,55.74,98.52,39.65,98.52,87.25,0,20-16,34.71-38.08,34.71-27.13,0-48.31-22.61-62.34-59l-2.89.54h0v50.26h3a6.07,6.07,0,0,1,9.3-5.14l.56.39a26.54,26.54,0,0,0,2.92,1.92h0a89.12,89.12,0,0,0,47,13.49c33.79,0,55.2-18.73,55.2-45C2400.56,550.14,2302.05,565.56,2302.05,520.84Z"/><path class="cls-2" d="M1806.31,615.49a19,19,0,0,1-3.4,10.86c-.34.48-.71.94-1.09,1.39a63.42,63.42,0,0,1-44.9,18.63h-30.23a13.56,13.56,0,0,1-13.55-13.56V509.4a18.48,18.48,0,0,1,18.47-18.48h0V488h-53.69v2.94a18.48,18.48,0,0,1,18.47,18.48V627.9a18.47,18.47,0,0,1-18.47,18.47v2.94h131.32V615.49Z"/><path class="cls-2" d="M1501.93,566.36h-41l0,3c18.32-.18,23.77,3.87,24.37,18.19v18a51.91,51.91,0,0,1-2.24,15.57c-6.37,20.41-22.43,26.52-33.41,28.25a46.34,46.34,0,0,1-7.15.55,48.42,48.42,0,0,1-6.24-.4,80.4,80.4,0,0,1-34-14.27c-10.49-7.89-16.88-19-21.38-30.67a107,107,0,0,1,0-71.91c4.5-11.66,10.89-22.78,21.38-30.66a78.87,78.87,0,0,1,16.1-9.09,81.73,81.73,0,0,1,10.37-3.54,51.62,51.62,0,0,1,22.34-1.27c15.27,2.7,32.88,13.74,45.16,52.56l.31,1.53,2.88-.56h0l0-49.8h-3a6.09,6.09,0,0,1-8.83,5.43v0c-7.85-4.65-26.7-14-49.2-12.07-13.55,1.41-28,4.64-39.65,12.06-11.51,7.49-23.25,16.24-31.3,28.3s-12.61,28.22-12.69,43c.08,14.81,4.66,31.07,12.69,43s19.79,20.82,31.3,28.31c11.67,7.4,26.11,10.64,39.67,12.07a69.23,69.23,0,0,0,39.64-8.14l4.33-2.07A11.67,11.67,0,0,1,1499,652.37h2.93V582.56h0a13.25,13.25,0,0,1,13.26-13.22V566.4Z"/><path class="cls-2" d="M1647.39,775q-2.54-.35-4.47-.51l-4-.34c-1.38-.11-2.6-.16-3.67-.16a38.35,38.35,0,0,0-4.35.25q-2.23.25-5.36.76l.51-3.88q4-.76,5.27-2.24c.87-1,1.31-2.66,1.31-5l.09-35.45a7.42,7.42,0,0,0-.6-3.63c-.39-.62-1.23-.93-2.53-.93-.5,0-1.46.06-2.87.17l-.17-.34.59-3.71c1.24.05,2.33.1,3.25.12l2.92.09c1,0,1.91,0,2.7,0,1,0,2.15,0,3.58,0s2.86-.07,4.27-.13l5-.17a31.68,31.68,0,0,1,14.51,3.17,23.71,23.71,0,0,1,9.75,8.86,24.67,24.67,0,0,1,3.51,13.21,30.37,30.37,0,0,1-2.24,11.73,29.72,29.72,0,0,1-6.25,9.5,29,29,0,0,1-9.28,6.37A28.53,28.53,0,0,1,1647.39,775ZM1643,724a5.33,5.33,0,0,0-2.36.34c-.4.22-.62.73-.68,1.52q-.59,14.6-.92,24.39t-.34,12.66a10.38,10.38,0,0,0,.88,4.73,5,5,0,0,0,3.21,2.36,24.65,24.65,0,0,0,6.54.67q9.12,0,14.35-6.28t5.23-17.26a24.68,24.68,0,0,0-3-12.58,19.34,19.34,0,0,0-8.78-7.85A33.27,33.27,0,0,0,1643,724Z"/><path class="cls-2" d="M1701.58,775a17.87,17.87,0,0,1-9.29-2.36,16.58,16.58,0,0,1-6.2-6.55,20.33,20.33,0,0,1-2.24-9.74,23,23,0,0,1,5.57-15.07,20.45,20.45,0,0,1,5.95-4.73,15.33,15.33,0,0,1,7.14-1.73q12.57,0,12.57,12.24a15.14,15.14,0,0,1-.17,2.28q-.17,1.19-.33,1.86l-1.1,1h-23.3q-.08,7.51,2.75,11.86a10.88,10.88,0,0,0,8,5.06q5.14.72,12.16-2.49l.5.17.93,2.45q-1.68,1.18-4,2.53a34.72,34.72,0,0,1-4.68,2.28A11.76,11.76,0,0,1,1701.58,775Zm-11.06-25.91,15.28-.76a3.08,3.08,0,0,0,1.69-.59,2.46,2.46,0,0,0,.42-1.69,6.88,6.88,0,0,0-1.82-5.15,7.13,7.13,0,0,0-5.19-1.77,9.57,9.57,0,0,0-6.75,2.66A12.32,12.32,0,0,0,1690.52,749.05Z"/><path class="cls-2" d="M1733.9,775a26.79,26.79,0,0,1-5.31-.47,37.86,37.86,0,0,1-4.73-1.3l-.25-.59c.11-.62.24-1.65.38-3.09s.28-2.94.42-4.51.21-2.81.21-3.71l3-.43c0,3.72.62,6.33,1.86,7.85s3.35,2.28,6.33,2.28a9.7,9.7,0,0,0,5.4-1.43,4.17,4.17,0,0,0,2.2-3.55,4.4,4.4,0,0,0-.85-2.61,11.71,11.71,0,0,0-3-2.62,63.39,63.39,0,0,0-6-3.46,23.06,23.06,0,0,1-7-5,8.34,8.34,0,0,1-2.19-5.57,10,10,0,0,1,2-6.16,13.78,13.78,0,0,1,5.57-4.27,19.53,19.53,0,0,1,7.94-1.56,33.27,33.27,0,0,1,8.44,1.35l.17.42q-.6,2.88-1,5.2c-.26,1.54-.47,3.25-.64,5.1l-3.12.26c.11-1.24.17-2.06.17-2.45a5.48,5.48,0,0,0-1.65-4.43q-1.63-1.4-5.27-1.4a8.45,8.45,0,0,0-4.86,1.35,3.94,3.94,0,0,0-2,3.3,5.37,5.37,0,0,0,1.73,3.79,22.34,22.34,0,0,0,5.61,3.8,56.68,56.68,0,0,1,7.14,4.26,13.54,13.54,0,0,1,3.63,3.68,7.46,7.46,0,0,1,1,3.88,9.62,9.62,0,0,1-2.15,6,15,15,0,0,1-5.66,4.43A17.68,17.68,0,0,1,1733.9,775Z"/><path class="cls-2" d="M1785.64,775a7.54,7.54,0,0,1-5.27-1.73,7.61,7.61,0,0,1-2.24-5.11l-.34-.08a50.13,50.13,0,0,1-3.84,3.5,25.77,25.77,0,0,1-3.2,2.28,5,5,0,0,1-2.24.8,11.34,11.34,0,0,1-5.57-1.35,10,10,0,0,1-3.84-3.71,10.45,10.45,0,0,1-1.39-5.41,7.6,7.6,0,0,1,1.22-4.3,5.73,5.73,0,0,1,3.25-2.45l16-4.39.08-3.71a10.1,10.1,0,0,0-1.94-6.58,6.7,6.7,0,0,0-5.49-2.37,13,13,0,0,0-5,1.1,21.81,21.81,0,0,0-5.15,3.12l-.42-.25-1-3.63q2.19-1.26,4.89-2.66a49.94,49.94,0,0,1,5.15-2.32,11.6,11.6,0,0,1,3.72-.93,14.09,14.09,0,0,1,6.33,1.31,9.36,9.36,0,0,1,4,3.71,11.64,11.64,0,0,1,1.39,5.87c0,.73-.07,1.91-.21,3.55s-.33,3.44-.55,5.44-.41,3.92-.55,5.78-.21,3.41-.21,4.64a4.08,4.08,0,0,0,.93,2.87,3.25,3.25,0,0,0,2.53,1,6.35,6.35,0,0,0,2.87-.72,10,10,0,0,0,2.19-1.39l1.19,1.35a25.38,25.38,0,0,1-1.82,2.49,20.46,20.46,0,0,1-2.53,2.57A8.66,8.66,0,0,1,1785.64,775Zm-15.7-6.08a8.32,8.32,0,0,0,3.76-1.14,16.43,16.43,0,0,0,3.92-2.91l.43-8.61-11.48,3.46a3.32,3.32,0,0,0-2.45,3.55,5.46,5.46,0,0,0,1.65,4A5.67,5.67,0,0,0,1769.94,768.88Z"/><path class="cls-2" d="M1799.4,770.91c1.69-.17,2.81-.72,3.38-1.65s.84-2.71.84-5.36V745.33a7.61,7.61,0,0,0-.76-4,2.7,2.7,0,0,0-2.45-1.19,8.26,8.26,0,0,0-1.77.26l-.42-.59.25-2.62c1.74-.34,3.49-.7,5.23-1.1s3.8-.87,6.17-1.43l.59.5c-.29,1.81-.48,3.37-.59,4.69s-.17,2.66-.17,4l.33.25a26,26,0,0,1,6-6.5q3.38-2.53,5.91-2.53a9.32,9.32,0,0,1,2.61.34l.26.34c-.23,1.51-.43,2.88-.6,4.09s-.32,2.52-.46,3.92-.24,2.76-.3,4.06l-3.29.25a16,16,0,0,0-.42-4.6,1.76,1.76,0,0,0-1.86-1.14,6.91,6.91,0,0,0-4,1.52,15.83,15.83,0,0,0-3.89,4.22c-.11,2.08-.19,3.91-.25,5.48s-.11,3.2-.17,4.86-.11,3.12-.17,4.39-.08,2.09-.08,2.49c0,1.91.28,3.2.84,3.88s1.63,1,3.21,1c.62,0,1.86-.05,3.71-.17l.09.34-.76,3.71c-1.13-.05-2.14-.08-3-.08s-1.84,0-2.83,0-1.9,0-2.74,0c-1.63,0-3.12,0-4.47.08s-2.82.14-4.39.25Z"/><path class="cls-2" d="M1832.57,770.91c1.69-.17,2.81-.72,3.38-1.65s.84-2.71.84-5.36V745.33a7.61,7.61,0,0,0-.76-4,2.7,2.7,0,0,0-2.45-1.19,8.26,8.26,0,0,0-1.77.26l-.42-.59.25-2.62c1.75-.34,3.49-.7,5.23-1.1s3.8-.87,6.17-1.43l.59.5c-.29,1.81-.48,3.37-.59,4.69s-.17,2.66-.17,4l.33.25a26,26,0,0,1,6-6.5q3.38-2.53,5.91-2.53a9.32,9.32,0,0,1,2.61.34l.26.34c-.23,1.51-.43,2.88-.6,4.09s-.32,2.52-.46,3.92-.24,2.76-.3,4.06l-3.29.25a16,16,0,0,0-.42-4.6,1.76,1.76,0,0,0-1.86-1.14,6.91,6.91,0,0,0-4,1.52,15.83,15.83,0,0,0-3.89,4.22c-.11,2.08-.19,3.91-.25,5.48s-.11,3.2-.17,4.86-.11,3.12-.17,4.39-.08,2.09-.08,2.49c0,1.91.28,3.2.84,3.88s1.64,1,3.21,1c.62,0,1.86-.05,3.71-.17l.09.34-.76,3.71c-1.13-.05-2.14-.08-3-.08s-1.84,0-2.83,0-1.9,0-2.74,0c-1.63,0-3.12,0-4.47.08s-2.82.14-4.39.25Z"/><path class="cls-2" d="M1879.33,775a15.6,15.6,0,0,1-8.53-2.36A15.94,15.94,0,0,1,1865,766a22,22,0,0,1-2.06-9.75,22.93,22.93,0,0,1,2.57-10.93,20,20,0,0,1,7-7.68,18.29,18.29,0,0,1,10-2.83,15.51,15.51,0,0,1,8.52,2.37,15.85,15.85,0,0,1,5.78,6.58,22,22,0,0,1,2.07,9.79,23.08,23.08,0,0,1-2.57,10.89,20,20,0,0,1-7,7.72A18.15,18.15,0,0,1,1879.33,775Zm2.36-4.14a8.8,8.8,0,0,0,7.51-3.84q2.79-3.84,2.79-10.42a24.5,24.5,0,0,0-1.52-8.95,14.39,14.39,0,0,0-4.22-6.08,9.63,9.63,0,0,0-6.25-2.19,8.8,8.8,0,0,0-7.51,3.88q-2.77,3.88-2.78,10.55a24,24,0,0,0,1.52,8.91,14,14,0,0,0,4.22,6A9.69,9.69,0,0,0,1881.69,770.82Z"/><path class="cls-2" d="M1905.07,775l.34-3.46a7.33,7.33,0,0,0,3.42-1.73,4.8,4.8,0,0,0,1.14-2.83c.11-1.18.17-2.64.17-4.39V721.11a9.19,9.19,0,0,0-.38-3.08,2,2,0,0,0-1.44-1.23,10.18,10.18,0,0,0-3.16,0l-.26-.16.34-2.87q3.12-.42,6.25-1t6.24-1.43l.51,1.1a14.55,14.55,0,0,0-.68,3.84q-.33,3.24-.63,8.52t-.55,11.94q-.26,6.67-.38,14.1t-.13,14.85a7.24,7.24,0,0,0,.68,3.63,2.45,2.45,0,0,0,2.28,1.1l3-.17.17.34-.67,3.63c-.9-.06-2.1-.11-3.59-.17s-2.8-.08-3.92-.08a30.81,30.81,0,0,0-3.85.29C1908.38,774.44,1906.76,774.68,1905.07,775Z"/><path class="cls-2" d="M1926.51,775l.34-3.46a7.33,7.33,0,0,0,3.42-1.73,4.73,4.73,0,0,0,1.13-2.83c.12-1.18.17-2.64.17-4.39V721.11a8.93,8.93,0,0,0-.38-3.08,1.93,1.93,0,0,0-1.43-1.23,10.24,10.24,0,0,0-3.17,0l-.25-.16.34-2.87q3.12-.42,6.24-1c2.08-.39,4.17-.87,6.25-1.43l.51,1.1a14.11,14.11,0,0,0-.68,3.84c-.22,2.16-.44,5-.63,8.52s-.38,7.5-.55,11.94-.3,9.15-.38,14.1-.13,9.9-.13,14.85a7.24,7.24,0,0,0,.68,3.63,2.45,2.45,0,0,0,2.28,1.1l3-.17.17.34-.68,3.63c-.9-.06-2.09-.11-3.58-.17s-2.8-.08-3.93-.08a30.8,30.8,0,0,0-3.84.29C1929.81,774.44,1928.2,774.68,1926.51,775Z"/><path class="cls-2" d="M1977.07,775a7.57,7.57,0,0,1-5.28-1.73,7.66,7.66,0,0,1-2.24-5.11l-.33-.08a50.13,50.13,0,0,1-3.84,3.5,25.06,25.06,0,0,1-3.21,2.28,5,5,0,0,1-2.24.8,11.34,11.34,0,0,1-5.57-1.35,10,10,0,0,1-3.84-3.71,10.45,10.45,0,0,1-1.39-5.41,7.68,7.68,0,0,1,1.22-4.3,5.76,5.76,0,0,1,3.25-2.45l16-4.39.08-3.71a10,10,0,0,0-1.94-6.58,6.68,6.68,0,0,0-5.49-2.37,12.87,12.87,0,0,0-5,1.1,21.42,21.42,0,0,0-5.15,3.12l-.43-.25-1-3.63c1.46-.84,3.1-1.73,4.9-2.66a49,49,0,0,1,5.15-2.32,11.61,11.61,0,0,1,3.71-.93,14.06,14.06,0,0,1,6.33,1.31,9.36,9.36,0,0,1,4,3.71,11.54,11.54,0,0,1,1.39,5.87c0,.73-.07,1.91-.21,3.55s-.32,3.44-.55,5.44-.41,3.92-.55,5.78-.21,3.41-.21,4.64a4.08,4.08,0,0,0,.93,2.87,3.25,3.25,0,0,0,2.53,1,6.32,6.32,0,0,0,2.87-.72,10.4,10.4,0,0,0,2.2-1.39l1.18,1.35a23.83,23.83,0,0,1-1.82,2.49,20.46,20.46,0,0,1-2.53,2.57A8.71,8.71,0,0,1,1977.07,775Zm-15.7-6.08a8.28,8.28,0,0,0,3.75-1.14,16.28,16.28,0,0,0,3.93-2.91l.42-8.61L1958,759.68a3.33,3.33,0,0,0-2.45,3.55,5.46,5.46,0,0,0,1.65,4A5.69,5.69,0,0,0,1961.37,768.88Z"/><path class="cls-2" d="M2023.82,775q-6.57,0-7.51-6l-.59-.26q-4.4,3-7,4.48a9.58,9.58,0,0,1-3.55,1.52,16,16,0,0,1-8.48-2.24,15.36,15.36,0,0,1-5.74-6.25,20,20,0,0,1-2.07-9.32,22.19,22.19,0,0,1,2.83-11.1,22,22,0,0,1,7.64-8,19.52,19.52,0,0,1,10.55-3q1.18,0,2.61.09c1,0,2,.14,3.21.25v-14a6.14,6.14,0,0,0-.76-3.46,2.67,2.67,0,0,0-2.36-1.1,10.09,10.09,0,0,0-2.11.34l.34-3.12c1.46-.17,2.92-.4,4.38-.68s2.82-.56,4.06-.84l4-.93.5,1.1a14.55,14.55,0,0,0-.67,3.79c-.23,2.14-.44,5-.63,8.44s-.38,7.42-.55,11.78-.3,9-.38,13.88-.13,9.82-.13,14.77a4.08,4.08,0,0,0,.93,2.87,3.25,3.25,0,0,0,2.53,1,5.75,5.75,0,0,0,2.49-.55,19.67,19.67,0,0,0,2.58-1.56l1.18,1.35c-.79,1.12-1.52,2.09-2.2,2.91a18.15,18.15,0,0,1-2.32,2.32A7.44,7.44,0,0,1,2023.82,775Zm-17.3-5.74a8,8,0,0,0,3.12-.68,20.22,20.22,0,0,0,3-1.56,34.38,34.38,0,0,0,3.08-2.23V741.62a20.4,20.4,0,0,0-8.18-1.94,11,11,0,0,0-8.91,3.84q-3.26,3.84-3.25,10.51a19.3,19.3,0,0,0,1.48,7.68,13.68,13.68,0,0,0,4,5.48A8.81,8.81,0,0,0,2006.52,769.22Z"/><path class="cls-2" d="M2051.42,775a15.57,15.57,0,0,1-8.52-2.36,15.87,15.87,0,0,1-5.78-6.63,22,22,0,0,1-2.07-9.75,23,23,0,0,1,2.57-10.93,20.09,20.09,0,0,1,7.05-7.68,18.29,18.29,0,0,1,10-2.83,15.52,15.52,0,0,1,8.53,2.37,15.92,15.92,0,0,1,5.78,6.58,22,22,0,0,1,2.07,9.79,23,23,0,0,1-2.58,10.89,20,20,0,0,1-7,7.72A18.18,18.18,0,0,1,2051.42,775Zm2.37-4.14a8.81,8.81,0,0,0,7.51-3.84q2.79-3.84,2.78-10.42a24.51,24.51,0,0,0-1.51-8.95,14.41,14.41,0,0,0-4.23-6.08,9.62,9.62,0,0,0-6.24-2.19,8.79,8.79,0,0,0-7.51,3.88q-2.79,3.88-2.79,10.55a24.17,24.17,0,0,0,1.52,8.91,14,14,0,0,0,4.22,6A9.7,9.7,0,0,0,2053.79,770.82Z"/><path class="cls-2" d="M2079.87,770.91c1.68-.17,2.81-.72,3.37-1.65s.85-2.71.85-5.36V745.33a7.71,7.71,0,0,0-.76-4,2.71,2.71,0,0,0-2.45-1.19,8.26,8.26,0,0,0-1.77.26l-.43-.59.26-2.62c1.74-.34,3.49-.7,5.23-1.1s3.8-.87,6.16-1.43l.59.5c-.28,1.81-.48,3.37-.59,4.69s-.17,2.66-.17,4l.34.25a25.73,25.73,0,0,1,6-6.5q3.38-2.53,5.91-2.53a9.34,9.34,0,0,1,2.62.34l.25.34c-.22,1.51-.42,2.88-.59,4.09s-.32,2.52-.46,3.92-.24,2.76-.3,4.06l-3.29.25a16,16,0,0,0-.42-4.6,1.77,1.77,0,0,0-1.86-1.14,6.94,6.94,0,0,0-4,1.52,15.81,15.81,0,0,0-3.88,4.22c-.11,2.08-.2,3.91-.25,5.48s-.12,3.2-.17,4.86-.11,3.12-.17,4.39-.08,2.09-.08,2.49c0,1.91.28,3.2.84,3.88s1.63,1,3.21,1c.62,0,1.85-.05,3.71-.17l.08.34-.75,3.71c-1.13-.05-2.14-.08-3-.08s-1.85,0-2.83,0-1.9,0-2.74,0c-1.64,0-3.13,0-4.48.08s-2.81.14-4.39.25Z"/><path class="cls-2" d="M2138.61,775a7.54,7.54,0,0,1-5.27-1.73,7.61,7.61,0,0,1-2.24-5.11l-.34-.08a50.13,50.13,0,0,1-3.84,3.5,25.06,25.06,0,0,1-3.21,2.28,4.9,4.9,0,0,1-2.23.8,11.31,11.31,0,0,1-5.57-1.35,9.86,9.86,0,0,1-3.84-3.71,10.46,10.46,0,0,1-1.4-5.41,7.61,7.61,0,0,1,1.23-4.3,5.73,5.73,0,0,1,3.25-2.45l16-4.39.09-3.71a10.1,10.1,0,0,0-1.94-6.58,6.71,6.71,0,0,0-5.49-2.37,12.88,12.88,0,0,0-5,1.1,21.81,21.81,0,0,0-5.15,3.12l-.42-.25-1-3.63q2.19-1.26,4.89-2.66a49.94,49.94,0,0,1,5.15-2.32,11.61,11.61,0,0,1,3.71-.93,14,14,0,0,1,6.33,1.31,9.25,9.25,0,0,1,4,3.71,11.54,11.54,0,0,1,1.4,5.87c0,.73-.07,1.91-.21,3.55s-.33,3.44-.55,5.44-.41,3.92-.55,5.78-.21,3.41-.21,4.64a4.08,4.08,0,0,0,.93,2.87,3.23,3.23,0,0,0,2.53,1,6.38,6.38,0,0,0,2.87-.72,10.3,10.3,0,0,0,2.19-1.39l1.18,1.35a23.58,23.58,0,0,1-1.81,2.49,20.46,20.46,0,0,1-2.53,2.57A8.66,8.66,0,0,1,2138.61,775Zm-15.7-6.08a8.32,8.32,0,0,0,3.76-1.14,16.43,16.43,0,0,0,3.92-2.91l.42-8.61-11.47,3.46a3.32,3.32,0,0,0-2.45,3.55,5.49,5.49,0,0,0,1.64,4A5.69,5.69,0,0,0,2122.91,768.88Z"/><path class="cls-2" d="M1767,426.37l87.46.23a5,5,0,0,0,4.77-4.93V318.87a4.53,4.53,0,0,0-2.44-4l-45.58-26.51c-1.46-.77-3.44-1.39-5.33.18l-41.22,27a4.56,4.56,0,0,0-2,3.79l-.09,102.56A4.54,4.54,0,0,0,1767,426.37Z"/><path class="cls-2" d="M1873.93,426.54h73.64a4.54,4.54,0,0,0,4.61-4.54V373.64a5,5,0,0,0-2.81-4.65l-73.26-42.27a4.54,4.54,0,0,0-6.64,4V422A4.54,4.54,0,0,0,1873.93,426.54Z"/><path class="cls-2" d="M1744.46,329.57l-124.35,87.84c-5,3.31-2.16,9.13,2.71,9.13h124.07a4.53,4.53,0,0,0,4.61-4.54V333.36A4.54,4.54,0,0,0,1744.46,329.57Z"/><path class="cls-2" d="M2066.31,356.58l-98.53,16.5a4.53,4.53,0,0,0-4.59,4.54v44.56a4.53,4.53,0,0,0,4.46,4.54l165.59-.46a4.54,4.54,0,0,0,2.71-8.13l-65.06-60.84A6.4,6.4,0,0,0,2066.31,356.58Z"/></svg>