<svg id="Capa_1" data-name="Capa 1" xmlns="http://www.w3.org/2000/svg" xmlns:xlink="http://www.w3.org/1999/xlink" viewBox="0 0 1376.5 932.7"><defs><style>.cls-1{fill:none;}.cls-2{clip-path:url(#clip-path);}</style><clipPath id="clip-path"><path class="cls-1" d="M883.11,246.28l-149-263.1a19.91,19.91,0,0,0-35.61-.37L510.33,314.3a19.92,19.92,0,0,0,.54,19.16L678.45,624c5.21,7.25,4.22,22.68-7.52,29C652.06,663.15,641.6,646,641.6,646L467.92,341.13c-9-18.3-16.67-17-24.94-17.17l-279-.3c-21.35-.64-27.87,21.31-19.17,34.67L371.22,703.66c9.22,16.43,20.13,13.7,35.27,14.67l209.06-1.68c22.12,1,60.07,21.46,64,67.74,5.58,66.09,43.67,105.5,71.26,111.51a8.35,8.35,0,0,0,9.45-5.28l22.49-58.21c1.44-3.73-.82-7.07-3.91-9.6-18.77-15.34-26.6-21.88-26.11-51.83-.49-16.84,14.19-54,55.89-53.73,53.1.38,216.8,1,216.8,1,15.13-1,26,1.77,35.27-14.67l226.38-345.32c8.7-13.36,2.18-35.32-19.17-34.67l-279,.29C980.63,324,973,322.72,964,341L790.28,645.83S779.83,663,761,652.89c-11.74-6.31-12.73-21.73-7.52-29L921,333.35a19.92,19.92,0,0,0,.55-19.16l-38.45-67.91"/></clipPath></defs><title>WEB_SANTAELENA_MAY23</title><g class="cls-2"><image width="1280" height="720" transform="translate(-20.05 33.07) scale(1.01 1.01)" xlink:href="../../FINALES/WEB_SANTAELENA_ABR23_Carpeta/Links/WhatsApp%20Image%202022-09-12%20at%208.33.40%20AM.jpeg"/></g></svg>