<svg id="Capa_1" data-name="Capa 1" xmlns="http://www.w3.org/2000/svg" viewBox="0 0 2500 1080"><defs><style>.cls-1,.cls-2{font-size:230.78px;fill:#fff;}.cls-1{font-family:RNSPhysis-Light, RNS Physis;font-weight:300;letter-spacing:0.2em;}.cls-2{font-family:RNSPhysis-Bold, RNS Physis;font-weight:700;}.cls-3{letter-spacing:-0.04em;}.cls-4{fill:#fff;}</style></defs><title>WEB_SANTAELENA</title><text class="cls-1" transform="translate(880.65 522.41) scale(0.7 0.7)">GRUPO</text><text class="cls-2" transform="translate(880.65 750.88)">SAN<tspan class="cls-3" x="476.55" y="0">T</tspan><tspan x="594.24" y="0">A ELENA</tspan></text><path class="cls-4" d="M534.71,431.94l-99-174.87a13.23,13.23,0,0,0-23.67-.24L287,477.15a13.21,13.21,0,0,0,.36,12.73L398.68,683c3.47,4.82,2.81,15.07-5,19.27-12.54,6.74-19.48-4.7-19.48-4.7L258.76,495c-6-12.16-11.08-11.29-16.58-11.41l-185.41-.2c-14.19-.43-18.52,14.17-12.74,23L194.49,735.93c6.13,10.92,13.38,9.11,23.44,9.75l139-1.12c14.7.69,39.92,14.27,42.52,45,3.71,43.93,29,70.12,47.36,74.12a5.55,5.55,0,0,0,6.28-3.51L468,821.5c1-2.48-.54-4.7-2.6-6.38-12.47-10.2-17.68-14.54-17.35-34.45-.33-11.19,9.43-35.91,37.15-35.71,35.29.26,144.09.64,144.09.64,10.06-.64,17.31,1.17,23.44-9.75L803.18,506.34c5.78-8.88,1.45-23.47-12.74-23L605,483.49c-5.5.13-10.57-.74-16.57,11.41L473,697.49s-6.95,11.44-19.49,4.7c-7.8-4.2-8.46-14.45-5-19.27L559.9,489.81a13.23,13.23,0,0,0,.36-12.74l-25.55-45.13"/></svg>