<svg id="Capa_1" data-name="Capa 1" xmlns="http://www.w3.org/2000/svg" viewBox="0 0 1080 1080"><defs><style>.cls-1{opacity:0.6;}.cls-2{fill:#7a5e54;}</style></defs><title>WEB_SANTAELENA</title><g class="cls-1"><path class="cls-2" d="M984.69,394.68c24.48-33.35,46.37-70,60.72-108.94,7.35-19.95,11.83-40.48,12.35-61.77.56-23.05-5.12-45.74-13.87-67-16-38.69-43.05-85.14-89.07-90.46-40-4.62-75.92,19.58-108.09,40-60.65,38.39-118.88,80.72-173.17,127.71-53.78,46.54-103.71,97.71-147.36,153.91S445.26,505.28,417,570.48c-31.91,73.69-51,154.89-35.36,235,5,25.72,14,50.55,24.81,74.36A326.5,326.5,0,0,0,446.39,946c24.36,31,56.34,59.52,96.49,66.15,39.3,6.49,78.67-4.54,114.41-20.42,32.23-14.32,63-32.27,92-52.32,57-39.45,107.2-88.2,150.65-142.1,44.2-54.81,81.74-115,113.45-177.78q11.42-22.62,21.84-45.73c1.69-3.74-1.78-13.33-2.75-16.35a134.48,134.48,0,0,0-10.79-24.5c-3.33-5.88-6.85-12.85-12.06-17.26-2.37-2-4.8-4.33-6.77-.65-1.16,2.15-2.38,4.25-3.69,6.31l1.29-2c-16.7,25.5-45.15,39.12-73.58,47.39-30.22,8.8-62.22,13.65-93.56,16.15a299.35,299.35,0,0,1-55.36-.29l2.35.26c-15.3-1.73-30.47-5-44.82-10.64a132.52,132.52,0,0,1-19.77-9.77c-1.62-1-3.23-2-4.81-3.07-.88-.59-1.75-1.2-2.61-1.81-.26-.19-2.49-1.77-1-.7,1.65,1.19-1.49-1.18-1.48-1.17-.67-.54-1.34-1.08-2-1.64-1.67-1.39-3.28-2.84-4.87-4.32-2.1-1.94-5.29-4.45-6.78-.66-1.56,4,1.65,13.08,2.75,16.36A140.79,140.79,0,0,0,705.68,590c3.4,6,7,12.52,12.05,17.25A140.3,140.3,0,0,0,778,640.14c22.79,6,46.76,7.32,70.23,6.39s46.59-4.15,69.59-8.26c21.65-3.86,43.38-8.82,63.62-17.63,22.62-9.83,41.93-24.84,53.72-46.85L1002.83,515A1101.67,1101.67,0,0,1,924.27,659.8l1.29-2c-35.86,55.23-77.23,107-124.94,152.51-47.26,45-100.76,83.66-159.51,112.29-36.68,17.88-77.62,32.29-119,28l2.35.26a120.44,120.44,0,0,1-52.42-19q-2.75-1.8-5.4-3.72c-.52-.38-3-2.28-.95-.68-.77-.59-1.53-1.2-2.29-1.81-3.8-3-7.46-6.28-11-9.63q-4.83-4.59-9.36-9.48c-.69-.74-1.35-1.49-2-2.23-3.44-3.68,2.33,2.79.23.29-1.78-2.11-3.56-4.22-5.29-6.38q-1.87-2.36-3.69-4.77c-1.25-1.66-6-9.33-1.2-1.49-1.06-1.71-2.27-3.32-3.36-5-.69-1.05-1.36-2.11-2-3.17s-3.75-6.2-.62-.92c3.26,5.52-.89-1.61-1.63-3L422,877.24c-2.91-5.3,3.72,7.48,1.79,3.54-1-2-2-4.06-2.95-6.11-.59-1.26-2.76-6.18,0,.11s.36.74-.22-.67c-.87-2.13-1.68-4.28-2.52-6.41,4.08,10.33.91,2.42.08-.08-.72-2.17-1.39-4.34-2.06-6.52-1.33-4.27.59,2.21.68,2.49-.46-1.44-.8-2.92-1.18-4.38q-1.69-6.59-3-13.26c-.24-1.23-.48-2.47-.7-3.71-.31-1.68-1.64-4.25,0,.36-.81-2.24-.77-5.11-1.08-7.47-5-38.47-1.59-73.87,7.23-112.4,8.54-37.33,21.93-73.34,37.86-108.11A815.19,815.19,0,0,1,512.73,511.5l-1.29,2C554.63,447,606.76,386.57,664.38,332.17c57.82-54.59,121.08-103.27,187.46-147,19.38-12.77,38.9-25.69,59.26-36.84,21.75-11.91,45.9-21.69,71.17-19.31l-2.36-.26a72.82,72.82,0,0,1,24.16,6.95,74.94,74.94,0,0,1,9.42,5.57c.67.47,1.33,1,2,1.43-2.58-1.86-.77-.59-.25-.14,1.7,1.48,3.42,2.91,5,4.47,1.33,1.29,2.6,2.62,3.87,4,1,1.07,2.09,3-1.26-1.46.49.65,1.07,1.27,1.58,1.91,1.52,1.91,5.35,8.43.36.18,1.53,2.54,5.36,9.49-.26-.8.4.74.82,1.47,1.23,2.2,2.73,4.79-4-8.07-2.18-4.31.44.93.83,2,1.35,2.85.27.45-4-9.53-2.21-5,.31.77.6,1.58.94,2.35-4-9.19-2.31-6.51-1.57-4.27.33,1,.67,2,1,3,1.7,5.43-1.25-4.89-.55-2,.45,1.84.91,3.67,1.29,5.52.16.75.24,1.72.48,2.46-1.67-5.11-.51-3.1-.25-1.23a121.86,121.86,0,0,1,1.07,14.28c0,1.33,0,2.66,0,4,0,2.64.1-1.81,0,.83-.1,2.39-.28,4.78-.5,7.15-.51,5.3-1.3,10.57-2.32,15.79-3.84,19.57-10.94,38.37-19.32,56.4a486.14,486.14,0,0,1-32.89,59.18l1.29-2Q963.49,320.24,954.9,332c-2.44,3.32-1.31,7.7-.48,11.48A107.48,107.48,0,0,0,963,366.57c3.56,7.31,7.35,14.91,12.54,21.22.94,1.15,7.42,9.32,9.2,6.89Z"/><path class="cls-2" d="M1001.81,524.29C989.06,543.34,977.06,562.89,966,583q-16.18,29.31-29.84,59.92T911.49,705.1q-11,31.62-19.29,64.1t-13.74,65.51c-.46,2.75-.89,5.5-1.32,8.26-.81,5.25,1.2,11.52,2.75,16.36a135.09,135.09,0,0,0,10.79,24.5l4.25,7.16a58.77,58.77,0,0,0,7.81,10.09c1.54,1.31,6.08,5.17,6.77.66q4.95-32,12.52-63.49T939.75,776q10.13-30.74,22.76-60.57Q975.07,685.78,990,657.2t32.35-56c1.45-2.27,2.9-4.54,4.37-6.81l-1.29,2q3-4.68,6.14-9.32a4,4,0,0,0,1.36-3.95,18.82,18.82,0,0,0-.88-7.54,73.76,73.76,0,0,0-3.38-10.76,105.1,105.1,0,0,0-5.15-12.37c-3.56-7.32-7.35-14.91-12.54-21.23-.89-1.09-7.56-9.35-9.2-6.88Z"/><path class="cls-2" d="M599.21,301.77Q550.09,358,499.82,413.28q-50.08,55-101.3,109-51.4,54.18-103.93,107.28-13,13.14-26,26.19c-7.71,7.71-15.26,15.64-23.37,22.93A246.46,246.46,0,0,1,200,710.64c-35.22,19.55-75.52,31.81-116,31-5.19-.1-10.36-.44-15.51-1l2.35.26a167.85,167.85,0,0,1-40.55-9.59c-9-3.38,1.14,23.85,2,25.91a137,137,0,0,0,12.17,23.85l4.08,5.84a23.81,23.81,0,0,0,6.86,6.63c42.14,15.78,88.95,13.2,131.13-1a261.37,261.37,0,0,0,56.92-27.27c17.12-10.9,32-23.91,46.36-38.2q56.39-56.25,111.53-113.73,54.93-57.29,108.6-115.77t106-118.14Q622.48,372,629,364.51c2.6-3,1.21-8.17.48-11.49A107.4,107.4,0,0,0,621,329.89c-3.56-7.32-7.35-14.92-12.54-21.23-1-1.27-7.16-9.23-9.2-6.89Z"/></g></svg>