<svg id="Capa_1" data-name="Capa 1" xmlns="http://www.w3.org/2000/svg" viewBox="0 0 1080 1080"><defs><style>.cls-1{fill:#7a5e54;}</style></defs><title>WEB_SANTAELENA</title><path class="cls-1" d="M230.89,281.62a3.93,3.93,0,0,1-3.11-6.29c28.37-37.91,53.6-72,79.65-105.52,3.15-4.05,11.4-5.79,17.3-5.8q193.22-.48,386.45.05c6.54,0,15.63,2.16,19.18,6.71,25.68,33,50.4,66.68,77.54,103.17a3.92,3.92,0,0,1-3.11,6.28H759.05a3.91,3.91,0,0,0-3.92,3.91V454.92c0,6.82-5.59,12.51-12.4,12.06-6.33-.41-10.33-3.12-10.38-14.64-.21-54.65-.08-109.31-.08-165.74a3.93,3.93,0,0,0-3.91-3.93H309.46a3.92,3.92,0,0,0-3.92,3.91V456.71A11.3,11.3,0,0,1,294.24,468h0a11.31,11.31,0,0,1-11.31-11.31V285.54a3.91,3.91,0,0,0-3.91-3.92ZM759,257.05a3.93,3.93,0,0,0,3.12-6.27c-15.74-21.26-29.12-40-43.72-57.75-3.74-4.54-12.47-7-18.91-7q-180.9-.57-361.81,0c-6,0-14.42,1.15-17.64,5.1-15.22,18.65-29.33,38.2-45.28,59.66a3.93,3.93,0,0,0,3.12,6.28Z"/><path class="cls-1" d="M767,736.46H270.57a10.47,10.47,0,0,0-.11,20.94l10.07.17a1.91,1.91,0,0,1,1.89,1.9c0,64.52-.2,135.84.64,199.16a9,9,0,0,0,.79,3.46c4,9.61,18.37,8.44,20.15-1.83a8.35,8.35,0,0,0,.14-1.49c.73-56.71.43-119,.43-175.77V759.75a1.92,1.92,0,0,1,1.91-1.91h24.75q93.78,0,187.55,0t187.55,0h24.75a1.92,1.92,0,0,1,1.91,1.91V783c0,56.72-.3,119.06.43,175.77a8.35,8.35,0,0,0,.14,1.49c1.78,10.27,16.12,11.44,20.15,1.83a9.2,9.2,0,0,0,.79-3.46c.83-63.32.65-134.64.64-199.16a1.91,1.91,0,0,1,1.89-1.9l10.07-.17a10.47,10.47,0,0,0-.11-20.94Z"/><path class="cls-1" d="M767,488.49H270.57a10.48,10.48,0,0,0-.11,20.95c2.89,0,5.81.1,10.07.16a1.93,1.93,0,0,1,1.89,1.91c0,64.51-.2,135.84.64,199.16a9.06,9.06,0,0,0,.79,3.46c4,9.61,18.37,8.43,20.15-1.84a8.24,8.24,0,0,0,.14-1.48c.73-56.72.43-119,.43-175.77V511.79a1.92,1.92,0,0,1,1.91-1.92h24.75q93.78,0,187.55,0t187.55,0h24.75a1.92,1.92,0,0,1,1.91,1.92V535c0,56.72-.3,119.05.43,175.77a8.24,8.24,0,0,0,.14,1.48c1.78,10.27,16.12,11.45,20.15,1.84a9.06,9.06,0,0,0,.79-3.46c.84-63.32.65-134.65.64-199.16A1.93,1.93,0,0,1,757,509.6c4.26-.06,7.18-.13,10.07-.16a10.48,10.48,0,0,0-.11-20.95Z"/><path class="cls-1" d="M847.19,1007.91v.14a10.61,10.61,0,0,1-10.62,10.11c-206.59-.24-426.59-.33-632.71,0-9.49,0-14.24-2.4-15.69-7.41-2-7,3.63-14,11-14H836.58A10.62,10.62,0,0,1,847.19,1007.91Z"/><path class="cls-1" d="M478.19,830.64h79.16c3.63,0,7.7,2.94,7.7,6.58V958.58c0,5.8-5.83,10.51-11.63,10.51h0a10.52,10.52,0,0,1-10.51-10.51V857.34a4.24,4.24,0,0,0-4.24-4.24H498.34a4.24,4.24,0,0,0-4.24,4.25c0,27.86,0,55.24,0,82.63,0,3.36.11,10.91.22,17.46A11.37,11.37,0,0,1,483,969h0a11.38,11.38,0,0,1-11.47-11.38c0-24.92,0-84.69,0-120.41A6.58,6.58,0,0,1,478.19,830.64Z"/><path class="cls-1" d="M342.63,807.62h67.68a11.26,11.26,0,0,1,11.26,11.26v92a11.26,11.26,0,0,1-11.26,11.26H342.63a11.26,11.26,0,0,1-11.25-11.26v-92A11.26,11.26,0,0,1,342.63,807.62Zm11,26v61.17a4.08,4.08,0,0,0,4.08,4.07h37.5a4.08,4.08,0,0,0,4.08-4.07V833.57a4.08,4.08,0,0,0-4.08-4.07h-37.5A4.08,4.08,0,0,0,353.66,833.57Z"/><path class="cls-1" d="M626.51,807.62h67.68a11.26,11.26,0,0,1,11.25,11.26v92a11.26,11.26,0,0,1-11.25,11.26H626.51a11.26,11.26,0,0,1-11.26-11.26v-92A11.26,11.26,0,0,1,626.51,807.62Zm11,26v61.17a4.07,4.07,0,0,0,4.07,4.07h37.51a4.07,4.07,0,0,0,4.07-4.07V833.57a4.07,4.07,0,0,0-4.07-4.07H641.61A4.07,4.07,0,0,0,637.54,833.57Z"/><path class="cls-1" d="M626.51,319.84h67.68a11.26,11.26,0,0,1,11.25,11.26v92a11.25,11.25,0,0,1-11.25,11.25H626.51a11.26,11.26,0,0,1-11.26-11.25v-92A11.26,11.26,0,0,1,626.51,319.84Zm11,26V407a4.07,4.07,0,0,0,4.07,4.08h37.51a4.07,4.07,0,0,0,4.07-4.08V345.79a4.08,4.08,0,0,0-4.07-4.08H641.61A4.08,4.08,0,0,0,637.54,345.79Z"/><path class="cls-1" d="M342.63,320.54h67.68a11.26,11.26,0,0,1,11.26,11.26v92A11.26,11.26,0,0,1,410.31,435H342.63a11.26,11.26,0,0,1-11.25-11.26v-92A11.26,11.26,0,0,1,342.63,320.54Zm11,25.95v61.17a4.08,4.08,0,0,0,4.08,4.08h37.5a4.08,4.08,0,0,0,4.08-4.08V346.49a4.08,4.08,0,0,0-4.08-4.07h-37.5A4.08,4.08,0,0,0,353.66,346.49Z"/><path class="cls-1" d="M483.91,320.54h67.68a11.26,11.26,0,0,1,11.26,11.26v92A11.26,11.26,0,0,1,551.59,435H483.91a11.26,11.26,0,0,1-11.25-11.26v-92A11.26,11.26,0,0,1,483.91,320.54Zm11,25.95v61.17a4.08,4.08,0,0,0,4.08,4.08h37.5a4.08,4.08,0,0,0,4.08-4.08V346.49a4.08,4.08,0,0,0-4.08-4.07H499A4.08,4.08,0,0,0,494.94,346.49Z"/><path class="cls-1" d="M626.51,556.94h67.68a11.25,11.25,0,0,1,11.25,11.25v92a11.26,11.26,0,0,1-11.25,11.26H626.51a11.26,11.26,0,0,1-11.26-11.26v-92A11.26,11.26,0,0,1,626.51,556.94Zm11,25.95v61.16a4.08,4.08,0,0,0,4.07,4.08h37.51a4.08,4.08,0,0,0,4.07-4.08V582.89a4.08,4.08,0,0,0-4.07-4.08H641.61A4.08,4.08,0,0,0,637.54,582.89Z"/><path class="cls-1" d="M342.63,557.64h67.68a11.26,11.26,0,0,1,11.26,11.26v92a11.26,11.26,0,0,1-11.26,11.26H342.63a11.26,11.26,0,0,1-11.25-11.26v-92A11.26,11.26,0,0,1,342.63,557.64Zm11,26v61.17a4.08,4.08,0,0,0,4.08,4.07h37.5a4.08,4.08,0,0,0,4.08-4.07V583.59a4.08,4.08,0,0,0-4.08-4.07h-37.5A4.08,4.08,0,0,0,353.66,583.59Z"/><path class="cls-1" d="M483.91,557.64h67.68a11.26,11.26,0,0,1,11.26,11.26v92a11.26,11.26,0,0,1-11.26,11.26H483.91a11.26,11.26,0,0,1-11.25-11.26v-92A11.26,11.26,0,0,1,483.91,557.64Zm11,26v61.17a4.08,4.08,0,0,0,4.08,4.07h37.5a4.08,4.08,0,0,0,4.08-4.07V583.59a4.08,4.08,0,0,0-4.08-4.07H499A4.08,4.08,0,0,0,494.94,583.59Z"/><path class="cls-1" d="M625.24,136.93c-7.23,0-13.17-6.84-11-13.75,1.65-5.42,7.2-7.37,16.55-7.05,21.21.74,42.46.38,64.3.26a10.27,10.27,0,0,1,10.31,10.27h0a10.27,10.27,0,0,1-10.27,10.27Z"/></svg>