<svg id="Capa_1" data-name="Capa 1" xmlns="http://www.w3.org/2000/svg" viewBox="0 0 554.16 219.62"><defs><style>.cls-1{fill:none;stroke:#7a5e54;stroke-miterlimit:10;}.cls-1,.cls-2{opacity:0.6;}.cls-3{fill:#7a5e54;}</style></defs><title>WEB_SANTAELENA_MAY23</title><ellipse class="cls-1" cx="232.84" cy="130.96" rx="187.83" ry="44.53" transform="translate(-11.96 24.01) rotate(-5.76)"/><g class="cls-2"><path class="cls-3" d="M441.08,27c-7,.9-14,1.4-21.07,1.6-2.57.07-5.15.1-7.72,0a19.65,19.65,0,0,1-4.13-.27l.71,1.78a45.62,45.62,0,0,0,7.1.77c3.73.23,7.47.4,11.2.64,9.56.61,19.17,1.55,28.48,3.9A21.63,21.63,0,0,1,467,42.58a8.49,8.49,0,0,1,2.24,6.79,14.66,14.66,0,0,1-3,6.36A99.36,99.36,0,0,1,457,66q-5,5.11-10.5,9.8a203.57,203.57,0,0,1-27.3,19.66c-.31.19.62,1.93.85,1.79a204,204,0,0,0,26-18.54q5.83-4.92,11.23-10.33a98.5,98.5,0,0,0,10-11.06c2.68-3.67,4-7.75,2-12.07a21.08,21.08,0,0,0-7.9-8.86c-4.2-2.71-9.26-3.54-14.1-4.39s-9.88-1.43-14.86-1.86-9.75-.66-14.62-.93a58.6,58.6,0,0,1-9.64-.91c-.16,0,.24,1.67.71,1.78a19.54,19.54,0,0,0,3.9.28c2.57.06,5.14,0,7.72,0a211.14,211.14,0,0,0,21.45-1.61c.13,0-.39-1.85-.86-1.79Z"/></g><g class="cls-2"><path class="cls-3" d="M421.82,98.39l16.93,0c.06,0-.34-1.78-.85-1.79-6.37-.24-12.78-.26-19.13-.71a3.47,3.47,0,0,0-.88-.13c-.46-.25-.43,0,.08.65l.21-.32a7.58,7.58,0,0,0,.91-1c.77-.86,1.48-1.77,2.18-2.69a48.78,48.78,0,0,0,4.16-6.47c.22-.41-.84-1.84-.92-1.68a49.44,49.44,0,0,1-5.22,7.81c-.4.48-.8,1-1.21,1.42a6.93,6.93,0,0,0-.94,1c-.44.78.24,2.06.81,2.61.91.86,2.69.58,3.82.62l5.66.21,11.32.42-.85-1.79H421c-.05,0,.33,1.8.85,1.8Z"/></g></svg>