<svg id="Capa_1" data-name="Capa 1" xmlns="http://www.w3.org/2000/svg" viewBox="0 0 2500 1080"><defs><style>.cls-1{font-size:237.61px;font-family:RNSPhysis-Thin, RNS Physis;font-weight:200;}.cls-1,.cls-3,.cls-4,.cls-6{fill:#272f35;}.cls-2{fill:#7a5e54;}.cls-3{font-size:102.86px;font-family:RNSPhysis-Light, RNS Physis;font-weight:300;letter-spacing:0.2em;}.cls-4{font-size:101.55px;font-family:RNSPhysis-Bold, RNS Physis;font-weight:700;}.cls-5{letter-spacing:-0.04em;}.cls-7{fill:#2d4459;}</style></defs><title>WEB_SANTAELENA</title><text class="cls-1" transform="translate(989.88 638.6)">&amp;</text><path class="cls-2" d="M481.11,344.41l-75.5-133.33a10.09,10.09,0,0,0-18.05-.19l-95.37,168a10.09,10.09,0,0,0,.28,9.71l84.92,147.25c2.64,3.68,2.14,11.49-3.81,14.69C364,555.67,358.72,547,358.72,547l-88-154.47c-4.58-9.27-8.44-8.61-12.64-8.7l-141.38-.15c-10.81-.33-14.12,10.8-9.71,17.57l114.73,175c4.67,8.33,10.2,6.95,17.87,7.43l106-.85c11.21.52,30.44,10.88,32.42,34.33,2.83,33.5,22.13,53.47,36.11,56.51a4.23,4.23,0,0,0,4.79-2.67l11.4-29.5c.73-1.89-.41-3.58-2-4.87-9.51-7.77-13.48-11.08-13.23-26.26-.25-8.54,7.19-27.39,28.32-27.23,26.91.19,109.87.49,109.87.49,7.67-.49,13.2.89,17.87-7.44l114.73-175c4.41-6.77,1.1-17.9-9.72-17.57l-141.37.15c-4.2.09-8.07-.57-12.64,8.7l-88,154.48s-5.3,8.72-14.86,3.57c-5.95-3.19-6.45-11-3.81-14.69l84.92-147.25a10.09,10.09,0,0,0,.28-9.71l-19.49-34.41"/><text class="cls-3" transform="translate(245.84 799.54) scale(0.7 0.7)">GRUPO</text><text class="cls-4" transform="translate(57.14 900.07)">SAN<tspan class="cls-5" x="209.71" y="0">T</tspan><tspan x="261.5" y="0">A ELENA</tspan></text><path class="cls-6" d="M2061.16,608.64,2120,679a8,8,0,0,0,5.41,2.08v2.79h-38.35v-2.79a5.58,5.58,0,0,0,3.75-9.72l-43.21-54.48c-2.81-2.74-3.89-3.45-6.26-4.53-8.44-3.85-18.31,2.72-18.31,12v42a14.66,14.66,0,0,0,14.66,14.66h2.94v2.79h-51v-2.79a17.5,17.5,0,0,0,17.51-17.51V551.23a17.48,17.48,0,0,0-17.49-17.49v-2.8h78.11c19.71.76,36.79,15.64,38.28,35.36.53,7.2-.49,15.77-4.23,22.14-8.11,13.76-20,19.81-35.88,20.24Zm-38.08-2.58,27.08,0c18.6,0,33.14-8.21,37.32-18.29,3.28-7.9,2.82-11.15,2.82-18.51a32.35,32.35,0,0,0-.24-4c-1.88-18.29-18.42-31.51-36.75-31.51h-30.23v72.32Z"/><path class="cls-6" d="M1697.22,668l-51.3-138.36h-33.63v2.79a12.57,12.57,0,0,1,12.57,12.53,12.79,12.79,0,0,1-.78,4.33l-43.3,118a19.07,19.07,0,0,1-17.92,12.51v2.79h37.49V679.7a12.12,12.12,0,0,1-3.7-.57,12.25,12.25,0,0,1-3.35-1.68,9.54,9.54,0,0,1-1.18-14.49L1643,612.09a8.68,8.68,0,0,1,14.27,3.1L1674,660a14.61,14.61,0,0,1-13.7,19.71v2.79h53.86V679.7a17.94,17.94,0,0,1-10.29-3.22A18.15,18.15,0,0,1,1697.22,668Zm-51.58-62.45-49.33,49.32a4,4,0,0,1-6.51-4.15l40-109.11,18.77,50.36A12.85,12.85,0,0,1,1645.64,605.5Z"/><path class="cls-6" d="M1940.43,606.13s-.48,0-.48-.65a.65.65,0,0,1,.48-.66,38.12,38.12,0,0,0,29-39.91c-1.45-19.71-18.55-34.62-38.19-35.34h-78.14v2.79a17.54,17.54,0,0,1,17.53,17.54V662.15a17.53,17.53,0,0,1-17.53,17.54v2.79h33l53.21,0a38.22,38.22,0,0,0,38.22-38.22v0A38.18,38.18,0,0,0,1940.43,606.13Zm-53.92-73.77h31.17c18.15,0,33.94,13.43,35.82,31.48a37.82,37.82,0,0,1-5.88,24.56,36.49,36.49,0,0,1-30.72,16.25h-17.54a12.86,12.86,0,0,1-12.85-12.87Zm75.21,111.92c0,1.34-.07,2.66-.2,4-1.87,18-17.65,31.44-35.79,31.44h-39.22V620.24a12.83,12.83,0,0,1,12.82-12.83h25.58a36.46,36.46,0,0,1,30.74,16.26,37.67,37.67,0,0,1,6.07,20.58Z"/><path class="cls-6" d="M2237.85,537.29a61.37,61.37,0,0,0-11-5.58,73.89,73.89,0,0,0-53.12-.15,61.48,61.48,0,0,0-11.51,5.73c-10.92,7.23-22.05,15.66-29.69,27.28s-12,27.18-12,41.47,4.42,29.94,12,41.47,18.77,20.07,29.69,27.27a60.92,60.92,0,0,0,11.51,5.74,73.84,73.84,0,0,0,53.12-.14,61.45,61.45,0,0,0,11-5.6c10.93-7.2,22.06-15.63,29.69-27.27s12-27.19,12-41.47-4.41-29.92-12-41.47S2248.78,544.52,2237.85,537.29Zm16.91,103.4c-4.26,11.24-10.33,21.94-20.26,29.54l-1.2.86a58,58,0,0,1-66.56,0l-1.19-.86c-9.94-7.6-16-18.3-20.27-29.54a104.81,104.81,0,0,1,0-69.28c4.27-11.26,10.33-22,20.27-29.56l1.19-.87a58,58,0,0,1,66.56,0l1.2.87c9.93,7.6,16,18.3,20.26,29.56a104.64,104.64,0,0,1,0,69.28Z"/><path class="cls-6" d="M2311.94,560.72c0-17.34,14.9-31.65,35-31.65,23.47,0,39.48,20.58,53,50.87l2.74-.53-.11-.58.88-.16V533.24h-2.88a5.77,5.77,0,0,1-8.37,5.15h0c-11.77-5.69-27.71-11.71-41.46-11.71-30.67,0-52.77,17.33-52.77,40.72,0,52.83,93.38,37.59,93.38,82.7,0,19-15.11,32.9-36.09,32.9-25.71,0-45.79-21.42-59.09-55.87l-2.74.51h0v47.64h2.88a5.76,5.76,0,0,1,8.81-4.88l.53.38a24.33,24.33,0,0,0,2.77,1.82h0A84.44,84.44,0,0,0,2353,685.39c32,0,52.33-17.75,52.33-42.6C2405.32,588.49,2311.94,603.11,2311.94,560.72Z"/><path class="cls-6" d="M1842.05,650.43a18,18,0,0,1-3.23,10.3c-.32.45-.67.89-1,1.32a60.1,60.1,0,0,1-42.56,17.65h-28.65a12.84,12.84,0,0,1-12.85-12.84v-117a17.5,17.5,0,0,1,17.51-17.5h0v-2.8h-50.89v2.8a17.5,17.5,0,0,1,17.51,17.5V662.2a17.5,17.5,0,0,1-17.51,17.5v2.8h124.48V650.43Z"/><path class="cls-6" d="M1553.53,603.87h-38.88v2.84c17.36-.17,22.53,3.67,23.1,17.24V641a49.08,49.08,0,0,1-2.12,14.76c-6,19.35-21.26,25.14-31.67,26.78a44.05,44.05,0,0,1-6.78.53,46.92,46.92,0,0,1-5.91-.39A76.23,76.23,0,0,1,1459,669.18c-9.94-7.49-16-18-20.26-29.07a101.38,101.38,0,0,1,0-68.16c4.26-11.06,10.32-21.6,20.26-29.07a75.32,75.32,0,0,1,15.26-8.62,78.07,78.07,0,0,1,9.84-3.35,48.89,48.89,0,0,1,21.17-1.2c14.47,2.55,31.16,13,42.8,49.82l.29,1.45,2.74-.53h0l0-47.2h-2.87a5.77,5.77,0,0,1-8.37,5.15v0c-7.43-4.41-25.3-13.25-46.63-11.44-12.85,1.34-26.52,4.4-37.58,11.42s-22,15.4-29.67,26.84-12,26.74-12,40.8c.08,14,4.41,29.45,12,40.8s18.76,19.73,29.67,26.83,24.75,10.09,37.6,11.44a65.63,65.63,0,0,0,37.58-7.72l4.09-2a11.06,11.06,0,0,1,15.84,10h2.78V619.22h0a12.57,12.57,0,0,1,12.57-12.53V603.9Z"/><path class="cls-6" d="M1683.71,786.71c-1.6-.21-3-.37-4.24-.48l-3.8-.32c-1.31-.1-2.47-.16-3.49-.16a36.76,36.76,0,0,0-4.12.24c-1.41.16-3.1.4-5.08.72l.48-3.68c2.51-.48,4.18-1.18,5-2.12s1.25-2.52,1.25-4.76l.07-33.6a7.22,7.22,0,0,0-.55-3.44,2.71,2.71,0,0,0-2.41-.88c-.48,0-1.38.06-2.72.16l-.16-.32.56-3.52c1.18.05,2.2.1,3.08.12l2.76.08c1,0,1.82,0,2.56,0,.91,0,2,0,3.41,0s2.7-.06,4-.12l4.72-.16a30.08,30.08,0,0,1,13.76,3,22.64,22.64,0,0,1,9.24,8.4,23.46,23.46,0,0,1,3.32,12.52,28.83,28.83,0,0,1-2.12,11.12,28.11,28.11,0,0,1-5.92,9,27.48,27.48,0,0,1-8.8,6A27.07,27.07,0,0,1,1683.71,786.71Zm-4.16-48.32a5.2,5.2,0,0,0-2.24.32,1.67,1.67,0,0,0-.64,1.44q-.57,13.85-.88,23.12t-.32,12a9.76,9.76,0,0,0,.84,4.48,4.65,4.65,0,0,0,3,2.24,23.11,23.11,0,0,0,6.2.64q8.64,0,13.6-6t5-16.36a23.4,23.4,0,0,0-2.84-11.92A18.37,18.37,0,0,0,1693,741,31.65,31.65,0,0,0,1679.55,738.39Z"/><path class="cls-6" d="M1735.07,786.71a16.79,16.79,0,0,1-8.8-2.24,15.61,15.61,0,0,1-5.88-6.2,19.21,19.21,0,0,1-2.12-9.24,21.52,21.52,0,0,1,1.4-7.76,21.29,21.29,0,0,1,3.88-6.52,19.28,19.28,0,0,1,5.64-4.48,14.49,14.49,0,0,1,6.76-1.64q11.91,0,11.92,11.6a16.17,16.17,0,0,1-.16,2.16c-.11.75-.22,1.34-.32,1.76l-1,1h-22.08q-.09,7.13,2.6,11.24a10.29,10.29,0,0,0,7.56,4.8q4.88.69,11.52-2.36l.48.16.88,2.32q-1.61,1.13-3.8,2.4a31.23,31.23,0,0,1-4.44,2.16A11.09,11.09,0,0,1,1735.07,786.71Zm-10.48-24.56,14.48-.72a2.81,2.81,0,0,0,1.6-.56,2.34,2.34,0,0,0,.4-1.6,6.55,6.55,0,0,0-1.72-4.88,6.76,6.76,0,0,0-4.92-1.68,9.09,9.09,0,0,0-6.4,2.52A11.64,11.64,0,0,0,1724.59,762.15Z"/><path class="cls-6" d="M1765.71,786.71a25,25,0,0,1-5-.44,33.63,33.63,0,0,1-4.48-1.24l-.24-.56c.1-.58.22-1.56.36-2.92s.26-2.78.4-4.28.2-2.66.2-3.52l2.8-.4c0,3.52.58,6,1.76,7.44s3.17,2.16,6,2.16a9.16,9.16,0,0,0,5.12-1.36,4,4,0,0,0,2.08-3.36,4.22,4.22,0,0,0-.8-2.48,11.6,11.6,0,0,0-2.8-2.48,62.39,62.39,0,0,0-5.68-3.28,21.76,21.76,0,0,1-6.64-4.72,7.87,7.87,0,0,1-2.08-5.28,9.5,9.5,0,0,1,1.92-5.84,13,13,0,0,1,5.28-4,18.55,18.55,0,0,1,7.52-1.48,31.7,31.7,0,0,1,8,1.28l.16.4c-.37,1.82-.68,3.46-.92,4.92s-.44,3.08-.6,4.84l-3,.24c.11-1.17.16-1.94.16-2.32a5.21,5.21,0,0,0-1.56-4.2q-1.56-1.32-5-1.32a8,8,0,0,0-4.6,1.28,3.72,3.72,0,0,0-1.88,3.12,5.07,5.07,0,0,0,1.64,3.6,21.33,21.33,0,0,0,5.32,3.6,53.21,53.21,0,0,1,6.76,4,12.85,12.85,0,0,1,3.44,3.48,7,7,0,0,1,1,3.68,9.11,9.11,0,0,1-2,5.68,14.36,14.36,0,0,1-5.36,4.2A16.84,16.84,0,0,1,1765.71,786.71Z"/><path class="cls-6" d="M1814.75,786.71a7.13,7.13,0,0,1-5-1.64,7.21,7.21,0,0,1-2.12-4.84l-.32-.08a47.23,47.23,0,0,1-3.64,3.32,22.75,22.75,0,0,1-3,2.16,4.61,4.61,0,0,1-2.12.76,10.69,10.69,0,0,1-5.28-1.28,9.34,9.34,0,0,1-3.64-3.52,9.89,9.89,0,0,1-1.32-5.12,7.3,7.3,0,0,1,1.16-4.08,5.46,5.46,0,0,1,3.08-2.32l15.2-4.16.08-3.52a9.57,9.57,0,0,0-1.84-6.24,6.36,6.36,0,0,0-5.2-2.24,12.27,12.27,0,0,0-4.72,1,20.88,20.88,0,0,0-4.88,3l-.4-.24-1-3.44c1.39-.8,2.93-1.64,4.64-2.52a48.06,48.06,0,0,1,4.88-2.2,11.23,11.23,0,0,1,3.52-.88,13.37,13.37,0,0,1,6,1.24,8.88,8.88,0,0,1,3.8,3.52A11,11,0,0,1,1814,759c0,.7-.07,1.82-.2,3.36s-.31,3.27-.52,5.16-.39,3.72-.52,5.48-.2,3.23-.2,4.4a3.85,3.85,0,0,0,.88,2.72,3.1,3.1,0,0,0,2.4,1,6,6,0,0,0,2.72-.68,9.39,9.39,0,0,0,2.08-1.32l1.12,1.28a22,22,0,0,1-1.72,2.36,18.44,18.44,0,0,1-2.4,2.44A8.16,8.16,0,0,1,1814.75,786.71ZM1799.87,781a7.87,7.87,0,0,0,3.56-1.08,15.49,15.49,0,0,0,3.72-2.76l.4-8.16-10.88,3.28a3.15,3.15,0,0,0-2.32,3.36,5.16,5.16,0,0,0,1.56,3.8A5.37,5.37,0,0,0,1799.87,781Z"/><path class="cls-6" d="M1827.79,782.87a3.93,3.93,0,0,0,3.2-1.56c.53-.88.8-2.57.8-5.08v-17.6a7.29,7.29,0,0,0-.72-3.76,2.56,2.56,0,0,0-2.32-1.12,7.8,7.8,0,0,0-1.68.24l-.4-.56.24-2.48c1.65-.32,3.31-.66,5-1s3.6-.82,5.84-1.36l.56.48c-.27,1.71-.45,3.19-.56,4.44s-.16,2.52-.16,3.8l.32.24a24.46,24.46,0,0,1,5.68-6.16q3.2-2.4,5.6-2.4a9.14,9.14,0,0,1,2.48.32l.24.32c-.21,1.44-.4,2.74-.56,3.88s-.31,2.39-.44,3.72-.23,2.62-.28,3.84l-3.12.24a15,15,0,0,0-.4-4.36,1.67,1.67,0,0,0-1.76-1.08,6.54,6.54,0,0,0-3.76,1.44,15.1,15.1,0,0,0-3.68,4c-.11,2-.19,3.71-.24,5.2s-.11,3-.16,4.6-.11,3-.16,4.16-.08,2-.08,2.36c0,1.82.27,3,.8,3.68a3.84,3.84,0,0,0,3,1c.59,0,1.76-.05,3.52-.16l.08.32-.72,3.52c-1.07,0-2-.08-2.88-.08s-1.75,0-2.68,0-1.8,0-2.6,0c-1.55,0-3,0-4.24.08s-2.67.14-4.16.24Z"/><path class="cls-6" d="M1859.23,782.87a3.93,3.93,0,0,0,3.2-1.56c.53-.88.8-2.57.8-5.08v-17.6a7.29,7.29,0,0,0-.72-3.76,2.56,2.56,0,0,0-2.32-1.12,7.8,7.8,0,0,0-1.68.24l-.4-.56.24-2.48c1.65-.32,3.31-.66,5-1s3.6-.82,5.84-1.36l.56.48c-.27,1.71-.45,3.19-.56,4.44s-.16,2.52-.16,3.8l.32.24a24.46,24.46,0,0,1,5.68-6.16q3.19-2.4,5.6-2.4a9.14,9.14,0,0,1,2.48.32l.24.32c-.21,1.44-.4,2.74-.56,3.88s-.31,2.39-.44,3.72-.23,2.62-.28,3.84l-3.12.24a15,15,0,0,0-.4-4.36,1.67,1.67,0,0,0-1.76-1.08,6.54,6.54,0,0,0-3.76,1.44,15.1,15.1,0,0,0-3.68,4c-.11,2-.19,3.71-.24,5.2s-.11,3-.16,4.6-.11,3-.16,4.16-.08,2-.08,2.36c0,1.82.27,3,.8,3.68a3.84,3.84,0,0,0,3,1c.59,0,1.76-.05,3.52-.16l.08.32-.72,3.52c-1.07,0-2-.08-2.88-.08s-1.75,0-2.68,0-1.8,0-2.6,0c-1.55,0-3,0-4.24.08s-2.67.14-4.16.24Z"/><path class="cls-6" d="M1903.55,786.71a14.68,14.68,0,0,1-8.08-2.24,15,15,0,0,1-5.48-6.28,20.84,20.84,0,0,1-2-9.24,21.73,21.73,0,0,1,2.44-10.36,19,19,0,0,1,6.68-7.28,17.39,17.39,0,0,1,9.44-2.68,14.74,14.74,0,0,1,8.08,2.24,15.08,15.08,0,0,1,5.48,6.24,20.81,20.81,0,0,1,2,9.28,21.77,21.77,0,0,1-2.44,10.32A18.82,18.82,0,0,1,1913,784,17.22,17.22,0,0,1,1903.55,786.71Zm2.24-3.92a8.34,8.34,0,0,0,7.12-3.64q2.64-3.63,2.64-9.88a23.19,23.19,0,0,0-1.44-8.48,13.63,13.63,0,0,0-4-5.76,9.14,9.14,0,0,0-5.92-2.08,8.34,8.34,0,0,0-7.12,3.68q-2.64,3.69-2.64,10a22.82,22.82,0,0,0,1.44,8.44,13.29,13.29,0,0,0,4,5.68A9.23,9.23,0,0,0,1905.79,782.79Z"/><path class="cls-6" d="M1928,786.71l.32-3.28a6.76,6.76,0,0,0,3.24-1.64,4.36,4.36,0,0,0,1.08-2.68c.11-1.12.16-2.5.16-4.16V735.67a8.68,8.68,0,0,0-.36-2.92,1.83,1.83,0,0,0-1.36-1.16,9.17,9.17,0,0,0-3,0l-.24-.16.32-2.72c2-.26,4-.59,5.92-1s4-.83,5.92-1.36l.48,1a14.43,14.43,0,0,0-.64,3.64q-.32,3.09-.6,8.08c-.18,3.34-.36,7.11-.52,11.32s-.28,8.67-.36,13.36-.12,9.39-.12,14.08a6.94,6.94,0,0,0,.64,3.44,2.33,2.33,0,0,0,2.16,1l2.8-.16.16.32-.64,3.44-3.4-.16c-1.41-.05-2.65-.08-3.72-.08a31.32,31.32,0,0,0-3.64.28C1931.09,786.22,1929.55,786.45,1928,786.71Z"/><path class="cls-6" d="M1948.27,786.71l.32-3.28a6.76,6.76,0,0,0,3.24-1.64,4.36,4.36,0,0,0,1.08-2.68c.11-1.12.16-2.5.16-4.16V735.67a8.68,8.68,0,0,0-.36-2.92,1.83,1.83,0,0,0-1.36-1.16,9.17,9.17,0,0,0-3,0l-.24-.16.32-2.72c2-.26,4-.59,5.92-1s4-.83,5.92-1.36l.48,1a14.43,14.43,0,0,0-.64,3.64q-.31,3.09-.6,8.08c-.18,3.34-.36,7.11-.52,11.32s-.28,8.67-.36,13.36-.12,9.39-.12,14.08a6.94,6.94,0,0,0,.64,3.44,2.33,2.33,0,0,0,2.16,1l2.8-.16.16.32-.64,3.44-3.4-.16c-1.41-.05-2.65-.08-3.72-.08a31.32,31.32,0,0,0-3.64.28C1951.41,786.22,1949.87,786.45,1948.27,786.71Z"/><path class="cls-6" d="M1996.19,786.71a7.13,7.13,0,0,1-5-1.64,7.26,7.26,0,0,1-2.12-4.84l-.32-.08a47.23,47.23,0,0,1-3.64,3.32,22.12,22.12,0,0,1-3,2.16,4.58,4.58,0,0,1-2.12.76,10.69,10.69,0,0,1-5.28-1.28,9.4,9.4,0,0,1-3.64-3.52,9.89,9.89,0,0,1-1.32-5.12,7.3,7.3,0,0,1,1.16-4.08,5.49,5.49,0,0,1,3.08-2.32l15.2-4.16.08-3.52a9.57,9.57,0,0,0-1.84-6.24,6.35,6.35,0,0,0-5.2-2.24,12.31,12.31,0,0,0-4.72,1,20.88,20.88,0,0,0-4.88,3l-.4-.24-1-3.44q2.08-1.2,4.64-2.52a49.07,49.07,0,0,1,4.88-2.2,11.23,11.23,0,0,1,3.52-.88,13.37,13.37,0,0,1,6,1.24,8.82,8.82,0,0,1,3.8,3.52,11,11,0,0,1,1.32,5.56c0,.7-.06,1.82-.2,3.36s-.3,3.27-.52,5.16-.38,3.72-.52,5.48-.2,3.23-.2,4.4a3.9,3.9,0,0,0,.88,2.72,3.1,3.1,0,0,0,2.4,1,5.92,5.92,0,0,0,2.72-.68A9.39,9.39,0,0,0,2002,779l1.12,1.28a20.72,20.72,0,0,1-1.72,2.36,18.44,18.44,0,0,1-2.4,2.44A8.07,8.07,0,0,1,1996.19,786.71ZM1981.31,781a7.84,7.84,0,0,0,3.56-1.08,15.49,15.49,0,0,0,3.72-2.76l.4-8.16-10.88,3.28a3.16,3.16,0,0,0-2.32,3.36,5.16,5.16,0,0,0,1.56,3.8A5.37,5.37,0,0,0,1981.31,781Z"/><path class="cls-6" d="M2040.51,786.71q-6.23,0-7.12-5.68l-.56-.24q-4.15,2.81-6.64,4.24a9,9,0,0,1-3.36,1.44,15.08,15.08,0,0,1-8-2.12,14.57,14.57,0,0,1-5.44-5.92,19.1,19.1,0,0,1-2-8.84,21.09,21.09,0,0,1,9.92-18.12,18.6,18.6,0,0,1,10-2.84c.75,0,1.58,0,2.48.08s1.92.14,3,.24V735.67a5.88,5.88,0,0,0-.72-3.28,2.53,2.53,0,0,0-2.23-1,10.13,10.13,0,0,0-2,.32l.33-3c1.38-.16,2.77-.37,4.15-.64s2.67-.53,3.84-.8,2.46-.56,3.84-.88l.48,1a13.87,13.87,0,0,0-.63,3.6q-.33,3-.61,8t-.51,11.16c-.17,4.14-.28,8.52-.37,13.16s-.11,9.31-.11,14a3.85,3.85,0,0,0,.88,2.72,3.08,3.08,0,0,0,2.4,1,5.33,5.33,0,0,0,2.36-.52,17.1,17.1,0,0,0,2.44-1.48l1.12,1.28c-.75,1.07-1.45,2-2.08,2.76a16.93,16.93,0,0,1-2.2,2.2A7,7,0,0,1,2040.51,786.71Zm-16.4-5.44a7.49,7.49,0,0,0,3-.64,18.13,18.13,0,0,0,2.84-1.48,30.27,30.27,0,0,0,2.92-2.12V755.11a19.34,19.34,0,0,0-7.75-1.84,10.51,10.51,0,0,0-8.45,3.64q-3.08,3.65-3.08,10a18.39,18.39,0,0,0,1.4,7.28,13.1,13.1,0,0,0,3.8,5.2A8.37,8.37,0,0,0,2024.11,781.27Z"/><path class="cls-6" d="M2066.68,786.71a14.65,14.65,0,0,1-8.08-2.24,14.89,14.89,0,0,1-5.48-6.28,20.85,20.85,0,0,1-2-9.24,21.74,21.74,0,0,1,2.45-10.36,18.92,18.92,0,0,1,6.68-7.28,17.34,17.34,0,0,1,9.44-2.68,14.76,14.76,0,0,1,8.08,2.24,15.22,15.22,0,0,1,5.48,6.24,21,21,0,0,1,2,9.28,21.89,21.89,0,0,1-2.44,10.32,18.89,18.89,0,0,1-6.64,7.32A17.22,17.22,0,0,1,2066.68,786.71Zm2.24-3.92a8.35,8.35,0,0,0,7.12-3.64q2.64-3.63,2.64-9.88a23.19,23.19,0,0,0-1.44-8.48,13.72,13.72,0,0,0-4-5.76,9.16,9.16,0,0,0-5.92-2.08,8.33,8.33,0,0,0-7.12,3.68c-1.77,2.46-2.64,5.79-2.64,10a22.82,22.82,0,0,0,1.44,8.44,13.29,13.29,0,0,0,4,5.68A9.21,9.21,0,0,0,2068.92,782.79Z"/><path class="cls-6" d="M2093.64,782.87a4,4,0,0,0,3.2-1.56c.53-.88.79-2.57.79-5.08v-17.6a7.29,7.29,0,0,0-.72-3.76,2.56,2.56,0,0,0-2.31-1.12,7.8,7.8,0,0,0-1.68.24l-.41-.56.24-2.48c1.66-.32,3.31-.66,5-1s3.6-.82,5.84-1.36l.56.48c-.27,1.71-.46,3.19-.56,4.44s-.16,2.52-.16,3.8l.32.24a24.28,24.28,0,0,1,5.68-6.16q3.2-2.4,5.6-2.4a9.19,9.19,0,0,1,2.48.32l.24.32c-.22,1.44-.4,2.74-.56,3.88s-.31,2.39-.44,3.72-.23,2.62-.28,3.84l-3.12.24a15.39,15.39,0,0,0-.4-4.36,1.68,1.68,0,0,0-1.76-1.08,6.52,6.52,0,0,0-3.76,1.44,14.94,14.94,0,0,0-3.68,4c-.11,2-.19,3.71-.24,5.2s-.11,3-.16,4.6-.11,3-.16,4.16-.08,2-.08,2.36c0,1.82.26,3,.8,3.68a3.82,3.82,0,0,0,3,1c.58,0,1.76-.05,3.52-.16l.08.32-.72,3.52c-1.07,0-2-.08-2.88-.08s-1.75,0-2.68,0-1.8,0-2.6,0c-1.55,0-3,0-4.25.08s-2.66.14-4.15.24Z"/><path class="cls-6" d="M2149.32,786.71a7.11,7.11,0,0,1-5-1.64,7.21,7.21,0,0,1-2.12-4.84l-.32-.08a49.16,49.16,0,0,1-3.64,3.32,22.75,22.75,0,0,1-3,2.16,4.61,4.61,0,0,1-2.12.76,10.64,10.64,0,0,1-5.28-1.28,9.34,9.34,0,0,1-3.64-3.52,9.89,9.89,0,0,1-1.32-5.12,7.22,7.22,0,0,1,1.16-4.08,5.46,5.46,0,0,1,3.08-2.32l15.2-4.16.08-3.52a9.63,9.63,0,0,0-1.84-6.24,6.36,6.36,0,0,0-5.2-2.24,12.23,12.23,0,0,0-4.72,1,20.68,20.68,0,0,0-4.88,3l-.4-.24-1-3.44q2.07-1.2,4.64-2.52a47.09,47.09,0,0,1,4.88-2.2,11.17,11.17,0,0,1,3.52-.88,13.43,13.43,0,0,1,6,1.24,8.88,8.88,0,0,1,3.8,3.52,11,11,0,0,1,1.32,5.56c0,.7-.07,1.82-.2,3.36s-.31,3.27-.52,5.16-.39,3.72-.52,5.48-.2,3.23-.2,4.4a3.85,3.85,0,0,0,.88,2.72,3.08,3.08,0,0,0,2.4,1,6,6,0,0,0,2.72-.68,9.64,9.64,0,0,0,2.08-1.32l1.12,1.28a22,22,0,0,1-1.72,2.36,18.44,18.44,0,0,1-2.4,2.44A8.16,8.16,0,0,1,2149.32,786.71ZM2134.44,781a7.87,7.87,0,0,0,3.56-1.08,15.49,15.49,0,0,0,3.72-2.76l.4-8.16-10.88,3.28a3.15,3.15,0,0,0-2.32,3.36,5.16,5.16,0,0,0,1.56,3.8A5.37,5.37,0,0,0,2134.44,781Z"/><path class="cls-7" d="M1804.75,471.18l82.9.22a4.76,4.76,0,0,0,4.53-4.67V369.28a4.3,4.3,0,0,0-2.31-3.81l-43.21-25.13c-1.38-.73-3.26-1.31-5.05.18l-39.07,25.55a4.3,4.3,0,0,0-1.93,3.59l-.09,97.22A4.3,4.3,0,0,0,1804.75,471.18Z"/><path class="cls-7" d="M1906.14,471.34h69.8a4.3,4.3,0,0,0,4.37-4.3V421.19a4.74,4.74,0,0,0-2.67-4.41l-69.43-40.06a4.31,4.31,0,0,0-6.3,3.81V467A4.3,4.3,0,0,0,1906.14,471.34Z"/><path class="cls-7" d="M1783.42,379.42l-117.86,83.26c-4.73,3.14-2,8.66,2.56,8.66h117.6a4.3,4.3,0,0,0,4.38-4.3V383A4.31,4.31,0,0,0,1783.42,379.42Z"/><path class="cls-7" d="M2088.49,405l-93.39,15.64a4.31,4.31,0,0,0-4.36,4.31V467.2a4.32,4.32,0,0,0,4.24,4.31l156.95-.44a4.3,4.3,0,0,0,2.57-7.71l-61.67-57.66A6.07,6.07,0,0,0,2088.49,405Z"/></svg>