<svg id="Capa_1" data-name="Capa 1" xmlns="http://www.w3.org/2000/svg" xmlns:xlink="http://www.w3.org/1999/xlink" viewBox="0 0 1376.5 1048.94"><defs><style>.cls-1{fill:none;}.cls-2{clip-path:url(#clip-path);}</style><clipPath id="clip-path"><path id="SVGID" class="cls-1" d="M878,332.77l-155.71-275a20.81,20.81,0,0,0-37.22-.38L488.4,403.86a20.82,20.82,0,0,0,.57,20L664.11,727.57c5.45,7.58,4.41,23.7-7.86,30.29-19.72,10.61-30.64-7.38-30.64-7.38L444.08,431.9C434.64,412.78,426.66,414.15,418,414l-291.57-.31c-22.31-.68-29.13,22.27-20,36.23L343,810.8c9.63,17.18,21,14.32,36.86,15.33l218.51-1.75c23.11,1.07,62.78,22.43,66.86,70.8,5.84,69.08,45.65,110.26,74.48,116.54a8.74,8.74,0,0,0,9.88-5.51l23.5-60.84c1.51-3.9-.85-7.39-4.09-10-19.61-16-27.8-22.86-27.28-54.17-.52-17.6,14.83-56.48,58.42-56.16,55.49.41,226.58,1,226.58,1,15.82-1,27.23,1.85,36.86-15.33L1300.2,449.76c9.09-14,2.27-36.91-20-36.23l-291.57.31c-8.65.19-16.63-1.18-26.07,17.94L781,750.36s-10.93,18-30.65,7.38c-12.27-6.59-13.3-22.71-7.86-30.29L917.63,423.77a20.82,20.82,0,0,0,.57-20l-40.18-71"/></clipPath></defs><title>WEB_SANTAELENA_MAY23</title><g class="cls-2"><image width="2048" height="1365" transform="translate(-156.45 34.09) scale(0.72 0.72)" xlink:href="../../FINALES/WEB_SANTAELENA_ABR23_Carpeta/Links/pexels-diego-rezende-573122.jpg"/></g></svg>