<svg id="Capa_1" data-name="Capa 1" xmlns="http://www.w3.org/2000/svg" viewBox="0 0 1080 1080"><defs><style>.cls-1{fill:#7a5e54;}</style></defs><title>WEB_SANTAELENA</title><path class="cls-1" d="M586.12,199c25.57,0,34.22-15.91,89.16,9.17,5.17,2.36,9.22,5.62,12.94,7.68a20.66,20.66,0,0,0,5.36,1.93c33.29,7.86,26.21,40.43,27.36,75.38,1.8,55,17.43,73.16,29.19,115.29,54.07,86.92,29.56,75.8,25.24,86-3.11,7.38,2,26.6,11.43,62.12,28.56,108.11,34,164.86,13.8,198.8-7.63,12.8-19,20.41-35.79,23.81a4.84,4.84,0,0,1-1.32.09c-4.24-.28-8.81-.6-13.63-.94-19.72-1.37-44.21-3.07-67.54-3.72l-1.25-.21c-18.87-3.09-82.32-1.85-90.5,6.72-7.47,7.84-10.91,19.06-10.23,33.35a19.47,19.47,0,0,0,.69,4.29c11.69,41.76,9.13,88.81,6.65,134.3-1.19,21.94-2.31,43-1.83,62.78a4.65,4.65,0,0,1-6.58,4.35,250.35,250.35,0,0,1-26.47-14.06c-8.37-5-14.42-8.61-22.31-8.61a26.42,26.42,0,0,0-7.85,1.24,4.59,4.59,0,0,1-2.41.1l-5.61-1.34c-1.12-1-2.18-1.94-3.17-2.84-7.85-28.91-39-32.23-61.93-34.67a187,187,0,0,1-19.7-2.77,4.77,4.77,0,0,1-.54-.15c-2.57-.86-1.31-1-4.13-1.91-3.48-1.71-14-12.11-10.21-26.07,1.84-6.7-4.1-14.7-9.14-19.59-40.49-39.36-48.56-47.66-61.63-71l-4.62-10.11c-5.32-29.71-7.34-71.45-5.9-76.08.86-2.76,1.8-41.42-1.22-44.93-1-6.67-4-20.58-4.69-24.3-4.89-27.46,15-7,20-62.92a58.52,58.52,0,0,1,4.35-17.56c1.44-3.19,1.31-6.67,1.6-10.1.77-9,1.69-14.87,8.51-24.94,1.38-2,10.64-21.29,11.95-22.73,3-3.36,7.61-17.9,11.95-19.21,36.55-11,25-31.08,22.38-44.87-.64-3.31-3.71-16.1-4.57-16.75-1.26-1-2.37-10.63-2.19-12.19,1.68-14.49,3.68-27.89,5.51-40.1,5.09-34.11,7.65-51.22-.4-60.57a15.64,15.64,0,0,0-12-5.45c-3.62,0-11.88,2.59-11.88,2.59-12.44,11.32-15.57,3.22-15.79,2.61-7-19.81,14.38-28.05,17.51-32.48,8-11.38,3.61-20.91-3.35-27.12-3.86-3.44-15.76-17.76-18.18-24.77-.65-1.92-5-11.58-.33-16.41,8-8.37,22.26,3.29,25.92,3.29a19,19,0,0,1,3.82.54c1.78.35,6.64-.65,9.16-.78,18.72-.91,26.94-16.79,28.07-23.87,4.61-28.78,12.41-28.23,12.41-28.23l-10.58-17.7c-21.55,14.46-12,24.67-19.94,38.82a24.41,24.41,0,0,1-11.33,10.13c-1.18,0-3.38,6.75-22.53.14-18.08-6.23-22.39-7.14-31.07-1.43-5.32,3.51-5.36,9-5.38,17.76-.05,16,12.67,43.12,19.84,54.1a4.62,4.62,0,0,1,.41,4.08c-10.06,28-17.89,29.87-14.74,54.38.42,3.34,4.22,13.33,15.61,14.67,3.32.39,20.77-2.9,20.77-2.9s.1-.11.16-.15c4.51,9-3.89,47.1-7.13,61.76-5,22.56-6.27,29.87-1.84,36.16,18.25,25.92,11.22,29,7.55,30.45-.44,0-5.82.43-6.25.54-17.5,4.77-25.45,25.77-35.45,51.25-4,10.19-11.1,23-12.89,27.26-5.24,12.49-7.53,30.79-7.82,37.09-1.17,25.54-7.93,20.48-19.05,31.88-6.91,7.09-2.82,34.3,0,43.29,2,6.5,5.59,37.41,5.33,39.69-5.23,19.49-1.06,70.42.48,74.53,17.92,54.11,42.18,80.23,59.9,99.31,15.31,16.49,25.42,27.38,26.26,48.6A19.2,19.2,0,0,0,405.34,972l7.61,2.62a58.83,58.83,0,0,0,10.66,3.58c28.05,9.3,42.24,12.88,49.87,14.8,6.63,1.68,6.63,1.68,10.12,5.21,1.85,1.88,4.3,4.35,7.84,7.7a4.6,4.6,0,0,1,1,1.34,19.16,19.16,0,0,0,11.08,10,4.29,4.29,0,0,1,1.42.78c1.66,1.43,3.44,2.94,5.35,4.55a19.38,19.38,0,0,0,12.48,4.47c.42,0,.85,0,1.28,0,1-.06,1.93-.09,2.89-.09,21.83,0,36.92,15.26,39.72,18.32a19,19,0,0,0,13.88,6.29,16.59,16.59,0,0,0,2.82-.23,20.46,20.46,0,0,0,6.85,2,10.89,10.89,0,0,0,7,3.68,9.66,9.66,0,0,0,1.2.07,10.92,10.92,0,0,0,6.87-2.44l5.5-4.47a10.91,10.91,0,0,0,3.87-10.36c-.33-1.86,1.05-118.92-.07-157.86-.68-23.68-1.27-44.14-.32-64.14a19.42,19.42,0,0,0-3.78-12.63c-.7-.92,110.87-2.09,131.6-2.09a141.42,141.42,0,0,0,22.84-1.7,4.51,4.51,0,0,1,1-.05c9.89.63,16.07.9,20.47.9,5,0,13.08,0,16.46-6.75,57.51-49,33.85-145.7,14.76-223.64-9-36.87-18.86-67-12.25-78.85,3.46-6.19,9.41-13.56-1-28.12C757.14,398.61,751.21,336.76,746.61,287c-2.57-27.91-4.8-52-13.48-72.31a19.11,19.11,0,0,0-12.23-10.71c-28.35-8.41-47.17-17.87-62.29-25.48a82.61,82.61,0,0,0-51.34-7c-1.17.23-12.63,2.38-13.78,2.67ZM535.4,227.11"/><path class="cls-1" d="M524.82,278.31a16.07,16.07,0,0,1-29.19.11c-16.2-34.84-41.58-90.79-53.28-121.51-5.93-15.55-11.25-31.32-10-48.69,2.93-40.59,35.74-72.95,75.53-74.1,39-1.12,73.34,29.44,78.62,69.28,2,15.18-1.11,29.32-5.87,43.28C571.25,174.17,542.78,239,524.82,278.31ZM509.53,166.58c26.47.08,48-22.24,48.13-50,.16-28-21.38-50.92-47.88-51s-48.07,22.57-48.07,50.73C461.71,144.13,483,166.5,509.53,166.58Z"/></svg>