<svg id="Capa_1" data-name="Capa 1" xmlns="http://www.w3.org/2000/svg" viewBox="0 0 1080 1080"><defs><style>.cls-1{fill:#e7e7e7;}</style></defs><title>WEB_SANTAELENA</title><path class="cls-1" d="M1033.41,466.31C994.86,224.94,788.93,49.76,543.75,49.76c-16.12,0-32.55.78-48.85,2.31C326.58,67.93,180.41,169,103.91,322.35c-76.14,152.66-69,329.25,19,472.37,15.58,25.32,16.89,44.62,4.68,68.85a477.67,477.67,0,0,0-20.43,47.19l-4.2,11c-6.82,17.88-13.88,36.38-18.31,55.28-3.38,14.41-1.11,27.58,6.42,37.09,6.82,8.59,17.34,13.31,29.61,13.31a55.86,55.86,0,0,0,14.48-2c14.92-4.06,28.76-9.94,43.46-16.18l1.16-.49c4.67-2,9.49-4,14.19-5.92,11.21-4.54,21.57-10,32.55-15.83,23-12.19,44.72-23.7,71.1-24.37l7.06-.17,5-5a35.36,35.36,0,0,0,6.3-8.71l1.47-3.24.08-3.55c.13-5.71-2.35-11.44-3.12-13.06l-3.32-7-7.44-2.25c-14.08-4.26-25.9-5-34.81-2.29-19.56,6-39.21,14.92-56.5,22.75l-12.47,5.6c-15.29,6.79-30.66,14.07-45.52,21.1l-2.14,1q-9,4.26-18,8.5l.08-.21L138.09,966c2.83-7.45,5.6-14.75,8.51-22.07,4.25-10.71,8.53-21.33,12.91-32.19,7.48-18.54,16-39.56,24-60.55,8.88-23.13,5.84-44.37-9.57-66.84-42.82-62.43-67.2-134.93-72.46-215.49-8-122.17,34.43-239.41,119.42-330.12,84.4-90.1,201.85-141.77,322.23-141.77a435.25,435.25,0,0,1,71.75,6c240.54,40.31,400,254.16,370.85,497.44C959.87,816.51,766.92,985.81,546.47,985.81A420.82,420.82,0,0,1,461,977a63.55,63.55,0,0,0-12.82-1.54c-12.34,0-20.13,6.09-23.17,18.09-2.64,10.24.21,16.91,3,20.67,4.47,6,12.35,9.49,22.21,9.87,15.8.6,31.92,1.73,47.51,2.82,23.21,1.62,47.21,3.3,70.71,3.3a369.52,369.52,0,0,0,46.3-2.64c129.92-16.32,245.57-84.08,325.64-190.79C1020.16,730.57,1054.05,595.53,1033.41,466.31Z"/><path class="cls-1" d="M643.32,761.84l.44.12a149.82,149.82,0,0,0,39.32,5.28A140.57,140.57,0,0,0,738.53,756h0c40.15-17.24,72.29-47.43,90.51-85,6.12-12.64,7.37-24.88,3.6-35.41-2.53-7.07-8.7-16.94-23.68-23.85l-7.65-3.54C769.16,593.39,735.9,578,702,566a44.74,44.74,0,0,0-14.31-2.16c-9.39,0-22.06,2.38-29.49,9.06-14.91,13.43-28.91,20-42.8,20-13.71,0-28-6.43-43.72-19.65-23.37-19.67-44.1-43.39-64.15-66.33-6.39-7.31-12.16-13.91-18.11-20.54-6.52-7.26-9.49-14.39-8.59-20.61.93-6.43,5.86-12.42,14.62-17.81,23.32-14.32,21.12-35.7,15.17-51.12-6.37-16.49-13.12-33.07-19.64-49.11l-.4-1q-4.71-11.57-9.38-23.15c-6.29-15.61-10.63-25.24-14.55-32.21-3-5.38-11-19.67-25.8-19.67-11.65,0-26,7.71-50,22.89C360.5,313.74,338,336,324.08,360.7c-14.3,25.29-20.22,53.9-17.6,85.05,3,36.32,17.79,71.55,45.1,107.72,61.84,81.91,136.72,144.16,222.57,185C596.07,748.92,619,755.19,643.32,761.84ZM459.57,409.63c-3.44,4.52-6,7.74-8.05,10.34-7,8.85-8.89,11.44-15,24.37-15.23,32.3,2.69,58.28,20.7,80.09C489.89,564,519.05,593.35,549,616.79c21.49,16.8,43.91,25.32,66.65,25.32,22.09,0,43.82-8.1,64.6-24.08,2-1.55,6.32-3.11,10.71-3.11a10.86,10.86,0,0,1,4,.62c22.23,9,43.88,18.62,66.81,28.8l.32.14q9.67,4.29,19.55,8.65c-24.58,42.27-59.15,63.7-102.81,63.7a152.74,152.74,0,0,1-40.32-5.78c-67.15-18.49-121.31-60.49-169.84-103.13-40-35.12-80.14-74.94-103-128.1-12.85-29.85-13.55-61.11-2-88,11.76-27.3,35.57-49.05,67.3-61.56l7,17.43c1.63,4,3.81,8.8,6.12,13.85,4.43,9.69,9.46,20.67,12.67,30.81C460.6,404.28,459.78,408.8,459.57,409.63Z"/></svg>