<svg id="Capa_1" data-name="Capa 1" xmlns="http://www.w3.org/2000/svg" viewBox="0 0 1080 1080"><defs><style>.cls-1{fill:#e7e7e7;}</style></defs><title>WEB_SANTAELENA</title><path class="cls-1" d="M904.74,376.93V86.67H208.3v295l-48,35.13v16.3h0v496c0,1.26,0,2.52.1,3.76a73.2,73.2,0,0,0,73,69.35H886.16a73.19,73.19,0,0,0,73.11-73.1V416.82Zm15.53,87.65V929.09a33.89,33.89,0,0,1-.83,7.45L672.58,641.27ZM640.74,664,890.64,962.9a34.87,34.87,0,0,1-4.48.3H233.38a33.56,33.56,0,0,1-3.49-.18L480,664l53.73,38.18a43.45,43.45,0,0,0,53.64,0ZM200.34,937.57a34,34,0,0,1-1-6.72c0-.58,0-1.16,0-1.75V464.5L448.08,641.3ZM906.47,426.52l-1.73,1.24v-2.51ZM865.74,125.67V455.58L564.23,670.66l-1,.79a4.31,4.31,0,0,1-5.44,0l-.5-.41-310-220.26V125.67Z"/><rect class="cls-1" x="288.02" y="187.71" width="145.5" height="39"/><rect class="cls-1" x="288.02" y="267.21" width="530.49" height="39"/><rect class="cls-1" x="288.02" y="353.22" width="530.49" height="39"/><rect class="cls-1" x="288.02" y="439.22" width="530.49" height="39"/><path class="cls-1" d="M641.77,789a68.13,68.13,0,0,0-27.1-25.19c-11.46-6-24.53-9.12-38.86-9.12-18.61,0-35.27,4.12-49.48,12.24a86.09,86.09,0,0,0-33.11,33,91.86,91.86,0,0,0-11.62,45.44c0,14.94,3.74,28.45,11.14,40.17a77.61,77.61,0,0,0,29.4,27.35,80.41,80.41,0,0,0,38.14,9.71A144,144,0,0,0,586,920.35a82.64,82.64,0,0,0,17-5.05l6.38-2.67-6.75-20.74-7.37,2.82a72.09,72.09,0,0,1-12.06,3.39,108.34,108.34,0,0,1-20.55,2,61.25,61.25,0,0,1-28.27-6.69,51.27,51.27,0,0,1-20.63-19.2c-5.06-8.29-7.62-18-7.62-29,0-13.63,3.25-25.83,9.66-36.28a66.12,66.12,0,0,1,25.66-24.23,71.76,71.76,0,0,1,33.9-8.47A58.51,58.51,0,0,1,603,782.74a47.43,47.43,0,0,1,19,17.87,50.25,50.25,0,0,1,6.79,26,60.27,60.27,0,0,1-2.73,19c-1.82,5.45-4.27,9.7-7.26,12.62s-6.19,4.36-9.69,4.36a7,7,0,0,1-5.13-2.45c-1.54-1.61-2.23-3.88-2.08-6.91l5.49-47.47L599.61,796H580.84a60.34,60.34,0,0,0-27,6.24,52.18,52.18,0,0,0-20.27,17.52,44.52,44.52,0,0,0-7.71,26c0,11.63,3.53,21,10.47,27.76s17.4,10.22,31.11,10.22a34.75,34.75,0,0,0,11-1.8,51.94,51.94,0,0,0,10-4.38c5.1,4.26,11.54,6.42,19.17,6.42,13.07,0,23.79-5.13,31.84-15.26s12.12-24.76,12.12-43.54C651.62,811.61,648.39,799.76,641.77,789ZM554.3,857.6a17.75,17.75,0,0,1-4.14-11.84c0-9.12,3-16.2,9-21.65A31.87,31.87,0,0,1,581.1,816h2.65l-4.54,35.39a14.7,14.7,0,0,1-4.1,8.1,11,11,0,0,1-7.9,3C561.29,862.56,557.07,860.94,554.3,857.6Z"/></svg>