<svg id="Capa_1" data-name="Capa 1" xmlns="http://www.w3.org/2000/svg" viewBox="0 0 1080 1080"><defs><style>.cls-1{fill:#e7e7e7;}.cls-2{fill:#e7e7e8;}</style></defs><title>WEB_SANTAELENA</title><path class="cls-1" d="M790.2,1049H317.34A271.63,271.63,0,0,1,45.7,777.32V304.46A271.65,271.65,0,0,1,317.34,32.82H790.2a271.67,271.67,0,0,1,271.64,271.64V777.32A271.65,271.65,0,0,1,790.2,1049ZM317.34,82.82C195.13,82.82,95.7,182.25,95.7,304.46V777.32C95.7,899.53,195.13,999,317.34,999H790.2c122.21,0,221.64-99.43,221.64-221.64V304.46c0-122.21-99.43-221.64-221.64-221.64Z"/><path class="cls-1" d="M553.77,835.36A294.48,294.48,0,1,1,762,749.11,292.53,292.53,0,0,1,553.77,835.36Zm0-538.95C419,296.41,309.3,406.08,309.3,540.89S419,785.36,553.77,785.36,798.25,675.69,798.25,540.89,688.58,296.41,553.77,296.41Z"/><path class="cls-2" d="M922.17,228.16a55.67,55.67,0,1,1-55.67-55.67A55.66,55.66,0,0,1,922.17,228.16Z"/></svg>