<svg id="Capa_1" data-name="Capa 1" xmlns="http://www.w3.org/2000/svg" viewBox="0 0 1080 1080"><defs><style>.cls-1{fill:#7a5e54;}</style></defs><title>WEB_SANTAELENA</title><path class="cls-1" d="M697.77,326.21,563.2,88.56A18,18,0,0,0,531,88.23l-170,299.42a18,18,0,0,0,.49,17.31L512.91,667.41c4.7,6.54,3.8,20.48-6.8,26.18-17,9.16-26.48-6.38-26.48-6.38L322.75,411.88c-8.16-16.52-15.06-15.34-22.53-15.51l-252-.26c-19.29-.59-25.18,19.25-17.32,31.31L235.4,739.34c8.33,14.84,18.19,12.38,31.85,13.25l188.85-1.52c20,.93,54.25,19.39,57.78,61.19,5,59.7,39.45,95.29,64.37,100.72a7.55,7.55,0,0,0,8.53-4.77l20.32-52.57c1.3-3.37-.74-6.39-3.54-8.68-16.95-13.86-24-19.76-23.58-46.81-.44-15.22,12.82-48.81,50.49-48.54,47.95.35,195.82.87,195.82.87,13.67-.87,23.53,1.6,31.85-13.25l204.48-311.91c7.86-12.07,2-31.9-17.31-31.32l-252,.27c-7.48.17-14.37-1-22.53,15.51L613.92,687.11s-9.44,15.54-26.49,6.37c-10.6-5.7-11.49-19.63-6.79-26.18L732,404.85a18,18,0,0,0,.49-17.3l-34.72-61.34"/></svg>