<svg id="Capa_1" data-name="Capa 1" xmlns="http://www.w3.org/2000/svg" viewBox="0 0 1580.04 708.21"><defs><style>.cls-1{fill:#e8e8e8;}</style></defs><title>WEB_SANTAELENA</title><path class="cls-1" d="M649.94,217.14a726,726,0,0,0-232-12.29,710.38,710.38,0,0,0-114.09,21.86c-35.13,9.8-70.86,21.73-101,42.82-6.76,4.74-14.23,9.86-19.18,16.58-5.19,7-5.2,14.61-2.51,22.67a59.11,59.11,0,0,0,15.09,24.28c6.07,5.71,13.34,9.91,20.68,13.76,31,16.27,64.38,27.78,98.36,36.11,69.74,17.09,142,21.38,213.55,23.51,57.52,1.71,115.21-2,172.45-7.58,61.63-6,123.28-14.24,183.88-27.12a717.56,717.56,0,0,0,83.11-22.62c27.94-9.57,55.88-21.09,80.17-38.14,19.38-13.61,35.37-31.17,45.78-52.55,6.48-13.29-2-28.73-8.56-40.48-6.91-12.4-19.11-18.73-31.82-24-68.64-28.19-146-30.33-219.15-27.78a1127.61,1127.61,0,0,0-238.27,34q-28.14,7.14-55.86,15.77c-2.47.76,5.21,21,9.36,19.72a1124.15,1124.15,0,0,1,227.21-45.42A1104.2,1104.2,0,0,1,892.7,185.3c38.47.41,77.08,3.28,114.7,11.66a371.87,371.87,0,0,1,45.45,13.19,170.52,170.52,0,0,1,18.78,7.88,79.82,79.82,0,0,1,7.89,4.5c1.7,1.11,4.13,4.18,5.79,4.76.61.22-5.41-5.07-1.58-2.55a13.34,13.34,0,0,1,1.32,2.76c.78,1.66,1,2.11,1.4,3.09-.57-1.29.13,1.25,0-.18a11,11,0,0,1-.06,3c-1,6.2-5.34,12.23-8.48,17.5a119,119,0,0,1-19.36,24.28c-18.2,17.74-40.91,30.31-64,40.43-27.94,12.24-57.3,21.51-86.85,29-55.29,14-112,22.56-168.59,29.37-58.44,7-117.31,12-176.19,13-28.71.48-57.42-.52-86.1-1.91-35.4-1.72-70.78-4.48-105.87-9.56-34.09-4.93-68-12-100.74-22.74a411,411,0,0,1-47.24-18.62c-7.23-3.4-14.49-6.92-21.37-11a66.48,66.48,0,0,1-9.74-6.82,36,36,0,0,1-3.67-3.53c-.39-.45-.72-1-1.13-1.41-.69-.72,1.89,7.78,2.47,4.91.88-4.29,1.09-7.34,4-11.08a54,54,0,0,1,9-8.71,183.07,183.07,0,0,1,21.2-14.73c15.05-9,31.18-16.09,47.63-22.11,34.48-12.6,70.46-21.57,106.56-28a722.31,722.31,0,0,1,225.85-4.6q27.22,3.76,54.09,9.63c3,.65-.25-7.22-.62-8.14-1-2.56-3.92-10.68-7.26-11.41Z"/><path class="cls-1" d="M1126.28,398.81c9,22.41,19,45.19,34.22,64.17a98.49,98.49,0,0,0,25.11,22.67,89.79,89.79,0,0,0,29.6,11.31c21.52,4.23,43.93,1.87,64.66-4.92,23-7.55,44.09-19.94,64.28-33.15,21.76-14.24,43.15-29,64.69-43.6l8.14-5.5-9.77-19.09a400.67,400.67,0,0,1-31.1,76.64q-5.49,10.32-11.57,20.3l10.17,18.47,44.15-89.26c1.78-3.6,3.79-7.17,5.25-10.92,1.78-4.54,1.39-9,0-13.63a52.65,52.65,0,0,0-4.34-9.88,32.35,32.35,0,0,0-5.4-7.47,17.85,17.85,0,0,0-6.59-4c-5-1.72-10.61-1.89-15.85-1.49-8.26.63-16.51,1.33-24.77,2l-55.3,4.48c-1,.08-.14,3.63-.15,3.61a34.1,34.1,0,0,0,2.68,7.27,33.35,33.35,0,0,0,3.94,6.67c.72.87,1.62,2.27,2.9,2.16l73.15-5.92c5.23-.42,10.44-1,15.67-.48l-.74-.08a25.81,25.81,0,0,1,8.55,2.24,15.71,15.71,0,0,1,1.69,1c1,.63.06,0,0,0a6.24,6.24,0,0,1,.7.62c.38.38,1.08,1.3-.34-.42l.19.24a24.31,24.31,0,0,1-1.94-3.06,34.11,34.11,0,0,1-2.62-6c-.44-1.63-.55-2-.35-1.2.13.63.09.45-.1-.55.37.21-.09,1.88-.2,2.38a19.7,19.7,0,0,1-.94,3c-.87,2.23-2,4.36-3.07,6.5l-6.43,13L1379,458.49l-14.41,29.15c-.56,1.12.58,4.25.86,5.14a43.29,43.29,0,0,0,3.39,7.7c1,1.84,2.15,4,3.79,5.42.79.66,1.46,1.31,2.13.21a400.63,400.63,0,0,0,35.52-74.7q3.9-11,7.15-22.24c.41-1.41-.45-3.93-.86-5.15a46.79,46.79,0,0,0-2.73-6.4,30.33,30.33,0,0,0-3.28-5.38c-.45-.54-2-2.77-2.9-2.17l-38.77,26.21c-12.19,8.25-24.33,16.6-36.68,24.61-23,14.9-47.48,28.79-74.42,35a127.51,127.51,0,0,1-42.25,2.78l.74.08a99.33,99.33,0,0,1-25-6,85.53,85.53,0,0,1-11.36-5.4q-2.81-1.59-5.47-3.41c-.89-.61-1.77-1.23-2.63-1.87l-.55-.41c.07.05.51.39.08.05l-1.44-1.13a91.54,91.54,0,0,1-9.25-8.69l-1.07-1.17-.46-.51c-.51-.56.44.5.42.49a13.73,13.73,0,0,1-2.18-2.6c-1.34-1.65-2.63-3.34-3.88-5.05l-.79-1.11c-.63-.87,1.1,1.6.49.71-.12-.19-.26-.37-.38-.56-.61-.88-1.2-1.77-1.78-2.67s-1.16-1.8-1.72-2.71l-.84-1.37c-1.06-1.75,1,1.79.27.47-1.08-1.86-2.14-3.73-3.16-5.63-.52-.95-1-1.91-1.52-2.87-.81-1.56,1.27,2.51.48.93-.28-.55-.56-1.1-.83-1.66q-1.61-3.23-3.11-6.5c-.52-1.13-1-2.26-1.54-3.39-.22-.48-1.17-2.65-.27-.59s-.06-.15-.25-.59c-1.93-4.46-3.78-9-5.6-13.46a44,44,0,0,0-3.82-7.49c-.61-.94-2.14-3.49-3.44-3.92-2.84-.94.49,7.81.62,8.14Z"/><path class="cls-1" d="M180.93,592.8q143.52-11.61,287.56-14.48,144.27-2.87,288.55,3,81.35,3.33,162.54,9.42c1.86.14-2.2-10.17-2.53-10.88-1.18-2.47-3.56-8.59-6.84-8.84q-144-10.78-288.54-12.89-144.17-2.07-288.28,4.61-81,3.76-161.82,10.31c-2.09.17,2.13,10,2.53,10.88,1,2.08,3.79,9.08,6.83,8.84Z"/></svg>


